<svg viewBox="0 0 20 20" xmlns="http://www.w3.org/2000/svg" id="icon-login-checked">
    <path fill-rule="evenodd" clip-rule="evenodd"
        d="M10.0003 18.3337C14.5953 18.3337 18.3337 14.5962 18.3337 10.0003C18.3337 5.40533 14.5953 1.66699 10.0003 1.66699C5.40533 1.66699 1.66699 5.40533 1.66699 10.0003C1.66699 14.5962 5.40533 18.3337 10.0003 18.3337ZM15.2256 8.14743C15.3532 8.02597 15.417 7.86625 15.417 7.70737C15.417 7.54765 15.3532 7.3871 15.2239 7.26565C14.9669 7.02274 14.5527 7.02357 14.2975 7.26731L9.10647 11.41L6.53714 8.95346C6.28196 8.70973 5.86684 8.70889 5.60991 8.9518C5.35298 9.19554 5.35298 9.58984 5.60816 9.83358L8.64242 12.7343C8.76564 12.8516 8.93256 12.9173 9.10647 12.9173C9.28125 12.9173 9.44817 12.8516 9.5714 12.7343L15.2256 8.14743Z"
    />
</svg>
    