<svg  viewBox="0 0 32 32" fill="none" xmlns="http://www.w3.org/2000/svg">
<g id="icon_opinion_yh">
<g id="Vector">
<path d="M28 12.1429V16.9057C28 17.0429 27.955 17.16 27.859 17.2457C27.763 17.3314 27.646 17.38 27.502 17.38H26.002V23.5714C26.002 23.9686 25.858 24.3057 25.564 24.5829C25.273 24.86 24.916 25 24.502 25H7.498C7.081 25 6.727 24.8629 6.436 24.5829C6.145 24.3057 5.998 23.9657 5.998 23.5714V17.3829H4.498C4.354 17.3829 4.231 17.34 4.141 17.2486C4.045 17.1571 4 17.0457 4 16.9086V12.1429C4 12.0057 4.045 11.8886 4.141 11.8029C4.237 11.7114 4.354 11.6686 4.498 11.6686H11.374C10.405 11.6686 9.58 11.3429 8.896 10.6943C8.212 10.0429 7.873 9.25714 7.873 8.33429C7.873 7.41143 8.215 6.62571 8.896 5.97429C9.58 5.32286 10.405 5 11.374 5C12.487 5 13.363 5.38286 13.999 6.14571L16 8.60286L18.001 6.14571C18.634 5.38286 19.513 5 20.626 5C21.595 5 22.42 5.32571 23.104 5.97429C23.788 6.62571 24.127 7.41143 24.127 8.33429C24.127 9.25714 23.785 10.0429 23.104 10.6943C22.42 11.3457 21.595 11.6686 20.626 11.6686H27.502C27.646 11.6686 27.769 11.7114 27.859 11.8029C27.952 11.8914 28 12.0057 28 12.1429ZM11.374 9.76286H14.419L12.451 7.36571C12.181 7.06 11.821 6.90571 11.374 6.90571C10.957 6.90571 10.603 7.04286 10.312 7.32286C10.021 7.6 9.874 7.94 9.874 8.33429C9.874 8.73143 10.018 9.06857 10.312 9.34571C10.603 9.62286 10.957 9.76286 11.374 9.76286ZM18.499 22.3229V11.6657H13.498V22.3171C13.498 22.5657 13.594 22.7543 13.78 22.8886C13.966 23.0229 14.206 23.0886 14.5 23.0886H17.5C17.791 23.0886 18.031 23.0229 18.22 22.8886C18.403 22.7629 18.499 22.5714 18.499 22.3229ZM21.688 9.34571C21.979 9.06857 22.126 8.72857 22.126 8.33429C22.126 7.93714 21.982 7.6 21.688 7.32286C21.397 7.04571 21.04 6.90571 20.626 6.90571C20.179 6.90571 19.819 7.06 19.549 7.36571L17.596 9.76286H20.626C21.04 9.76286 21.394 9.62286 21.688 9.34571Z" fill="black"/>
<path d="M28 12.1429V16.9057C28 17.0429 27.955 17.16 27.859 17.2457C27.763 17.3314 27.646 17.38 27.502 17.38H26.002V23.5714C26.002 23.9686 25.858 24.3057 25.564 24.5829C25.273 24.86 24.916 25 24.502 25H7.498C7.081 25 6.727 24.8629 6.436 24.5829C6.145 24.3057 5.998 23.9657 5.998 23.5714V17.3829H4.498C4.354 17.3829 4.231 17.34 4.141 17.2486C4.045 17.1571 4 17.0457 4 16.9086V12.1429C4 12.0057 4.045 11.8886 4.141 11.8029C4.237 11.7114 4.354 11.6686 4.498 11.6686H11.374C10.405 11.6686 9.58 11.3429 8.896 10.6943C8.212 10.0429 7.873 9.25714 7.873 8.33429C7.873 7.41143 8.215 6.62571 8.896 5.97429C9.58 5.32286 10.405 5 11.374 5C12.487 5 13.363 5.38286 13.999 6.14571L16 8.60286L18.001 6.14571C18.634 5.38286 19.513 5 20.626 5C21.595 5 22.42 5.32571 23.104 5.97429C23.788 6.62571 24.127 7.41143 24.127 8.33429C24.127 9.25714 23.785 10.0429 23.104 10.6943C22.42 11.3457 21.595 11.6686 20.626 11.6686H27.502C27.646 11.6686 27.769 11.7114 27.859 11.8029C27.952 11.8914 28 12.0057 28 12.1429ZM11.374 9.76286H14.419L12.451 7.36571C12.181 7.06 11.821 6.90571 11.374 6.90571C10.957 6.90571 10.603 7.04286 10.312 7.32286C10.021 7.6 9.874 7.94 9.874 8.33429C9.874 8.73143 10.018 9.06857 10.312 9.34571C10.603 9.62286 10.957 9.76286 11.374 9.76286ZM18.499 22.3229V11.6657H13.498V22.3171C13.498 22.5657 13.594 22.7543 13.78 22.8886C13.966 23.0229 14.206 23.0886 14.5 23.0886H17.5C17.791 23.0886 18.031 23.0229 18.22 22.8886C18.403 22.7629 18.499 22.5714 18.499 22.3229ZM21.688 9.34571C21.979 9.06857 22.126 8.72857 22.126 8.33429C22.126 7.93714 21.982 7.6 21.688 7.32286C21.397 7.04571 21.04 6.90571 20.626 6.90571C20.179 6.90571 19.819 7.06 19.549 7.36571L17.596 9.76286H20.626C21.04 9.76286 21.394 9.62286 21.688 9.34571Z" fill="url(#paint0_linear_358_24758)"/>
</g>
</g>
<defs>
<linearGradient id="paint0_linear_358_24758" x1="3.5" y1="4.54545" x2="23.2857" y2="27.7936" gradientUnits="userSpaceOnUse">
<stop stop-color="#FFE39B"/>
<stop offset="1" stop-color="#FFBD3E"/>
</linearGradient>
</defs>
</svg>
