<svg  viewBox="0 0 32 32" fill="none" xmlns="http://www.w3.org/2000/svg">
<g id="icon_opinion_ls">
<g id="Vector">
<path d="M23.1176 28C19.8689 28 17.2353 25.3664 17.2353 22.1176C17.2353 18.8689 19.8689 16.2353 23.1176 16.2353C26.3664 16.2353 29 18.8689 29 22.1176C29 25.3664 26.3664 28 23.1176 28ZM26.0588 22.4613C26.0588 22.2678 25.8084 22.111 25.4997 22.111H23.8064L25.8696 20.1772C26.117 19.9457 26.1162 19.5693 25.8678 19.3368C25.6194 19.1042 25.2175 19.1035 24.97 19.3352L23.111 21.0775L21.2521 19.3352C21.0047 19.1035 20.6026 19.1042 20.3542 19.3368C20.1058 19.5693 20.105 19.9457 20.3525 20.1772L22.4158 22.111H20.7357C20.4268 22.111 20.1765 22.2678 20.1765 22.4613V22.4978C20.1765 22.6913 20.4268 22.8481 20.7357 22.8481H22.3841C22.3841 22.8501 22.3824 22.851 22.3824 22.8529L22.386 23.5882H21.2794C21.0763 23.5882 20.9118 23.7528 20.9118 23.9559C20.9118 24.1589 21.0763 24.3235 21.2794 24.3235H22.3896L22.3936 25.1614C22.3936 25.5108 22.7178 25.7941 23.1176 25.7941C23.5175 25.7941 23.8416 25.5108 23.8416 25.1614L23.8457 24.3235H24.9559C25.159 24.3235 25.3235 24.1589 25.3235 23.9559C25.3235 23.7528 25.159 23.5882 24.9559 23.5882H23.8493L23.8529 22.8529C23.8529 22.851 23.8512 22.8501 23.8512 22.8481H25.4997C25.8084 22.8481 26.0588 22.6913 26.0588 22.4978V22.4613ZM16.1454 19.7943C16.0916 19.7637 16.0359 19.7359 15.9913 19.6914L15.0671 18.7752C14.6646 18.3738 14.1192 18.1487 13.5507 18.1492H13.5451C12.9784 18.1477 12.4341 18.3708 12.0315 18.7696L11.0759 19.7097C10.8029 19.9765 10.3669 19.9765 10.0938 19.7097L9.13652 18.7705C8.734 18.3715 8.18964 18.1484 7.62285 18.1502H7.61828C7.05649 18.1491 6.5168 18.3689 6.11564 18.7622L4.61299 20.1095C4.32232 20.3889 4.31328 20.8509 4.59286 21.1414C4.85846 21.4174 5.29257 21.4413 5.58683 21.1959L7.10234 19.8375L7.13 19.8118C7.40263 19.5434 7.84022 19.5427 8.11388 19.8099L9.07028 20.7501C9.4738 21.1489 10.0186 21.3718 10.5859 21.3704C11.156 21.3704 11.694 21.15 12.0996 20.7501L13.056 19.8099C13.3299 19.5425 13.7678 19.5432 14.0409 19.8118L14.9641 20.7281C15.2082 20.9704 15.5035 21.1382 15.8217 21.2411C15.7874 21.529 15.7647 21.8204 15.7647 22.1176C15.7647 22.6213 15.8159 23.113 15.9124 23.5882H6.94118C5.31675 23.5882 4 22.2714 4 20.6471V5.94118C4 4.31684 5.31675 3 6.94118 3H21.6471C23.2714 3 24.5882 4.31684 24.5882 5.94118V14.9124C24.1042 14.8141 23.6116 14.7646 23.1176 14.7647C19.8696 14.7647 17.1186 16.8732 16.1454 19.7943ZM8.41176 12.1912C8.41176 11.5821 7.91803 11.0882 7.30882 11.0882C6.69962 11.0882 6.20588 11.5821 6.20588 12.1912V15.1324C6.20588 15.7415 6.69962 16.2353 7.30882 16.2353C7.91803 16.2353 8.41176 15.7415 8.41176 15.1324V12.1912ZM12.0882 7.04412C12.0882 6.435 11.5945 5.94118 10.9853 5.94118C10.3762 5.94118 9.88235 6.435 9.88235 7.04412V15.1324C9.88235 15.7415 10.3762 16.2353 10.9853 16.2353C11.5945 16.2353 12.0882 15.7415 12.0882 15.1324V7.04412ZM15.7647 9.25C15.7647 8.64088 15.2709 8.14706 14.6618 8.14706C14.0526 8.14706 13.5588 8.64088 13.5588 9.25V15.1324C13.5588 15.7415 14.0526 16.2353 14.6618 16.2353C15.2709 16.2353 15.7647 15.7415 15.7647 15.1324V9.25Z" fill="black"/>
<path d="M23.1176 28C19.8689 28 17.2353 25.3664 17.2353 22.1176C17.2353 18.8689 19.8689 16.2353 23.1176 16.2353C26.3664 16.2353 29 18.8689 29 22.1176C29 25.3664 26.3664 28 23.1176 28ZM26.0588 22.4613C26.0588 22.2678 25.8084 22.111 25.4997 22.111H23.8064L25.8696 20.1772C26.117 19.9457 26.1162 19.5693 25.8678 19.3368C25.6194 19.1042 25.2175 19.1035 24.97 19.3352L23.111 21.0775L21.2521 19.3352C21.0047 19.1035 20.6026 19.1042 20.3542 19.3368C20.1058 19.5693 20.105 19.9457 20.3525 20.1772L22.4158 22.111H20.7357C20.4268 22.111 20.1765 22.2678 20.1765 22.4613V22.4978C20.1765 22.6913 20.4268 22.8481 20.7357 22.8481H22.3841C22.3841 22.8501 22.3824 22.851 22.3824 22.8529L22.386 23.5882H21.2794C21.0763 23.5882 20.9118 23.7528 20.9118 23.9559C20.9118 24.1589 21.0763 24.3235 21.2794 24.3235H22.3896L22.3936 25.1614C22.3936 25.5108 22.7178 25.7941 23.1176 25.7941C23.5175 25.7941 23.8416 25.5108 23.8416 25.1614L23.8457 24.3235H24.9559C25.159 24.3235 25.3235 24.1589 25.3235 23.9559C25.3235 23.7528 25.159 23.5882 24.9559 23.5882H23.8493L23.8529 22.8529C23.8529 22.851 23.8512 22.8501 23.8512 22.8481H25.4997C25.8084 22.8481 26.0588 22.6913 26.0588 22.4978V22.4613ZM16.1454 19.7943C16.0916 19.7637 16.0359 19.7359 15.9913 19.6914L15.0671 18.7752C14.6646 18.3738 14.1192 18.1487 13.5507 18.1492H13.5451C12.9784 18.1477 12.4341 18.3708 12.0315 18.7696L11.0759 19.7097C10.8029 19.9765 10.3669 19.9765 10.0938 19.7097L9.13652 18.7705C8.734 18.3715 8.18964 18.1484 7.62285 18.1502H7.61828C7.05649 18.1491 6.5168 18.3689 6.11564 18.7622L4.61299 20.1095C4.32232 20.3889 4.31328 20.8509 4.59286 21.1414C4.85846 21.4174 5.29257 21.4413 5.58683 21.1959L7.10234 19.8375L7.13 19.8118C7.40263 19.5434 7.84022 19.5427 8.11388 19.8099L9.07028 20.7501C9.4738 21.1489 10.0186 21.3718 10.5859 21.3704C11.156 21.3704 11.694 21.15 12.0996 20.7501L13.056 19.8099C13.3299 19.5425 13.7678 19.5432 14.0409 19.8118L14.9641 20.7281C15.2082 20.9704 15.5035 21.1382 15.8217 21.2411C15.7874 21.529 15.7647 21.8204 15.7647 22.1176C15.7647 22.6213 15.8159 23.113 15.9124 23.5882H6.94118C5.31675 23.5882 4 22.2714 4 20.6471V5.94118C4 4.31684 5.31675 3 6.94118 3H21.6471C23.2714 3 24.5882 4.31684 24.5882 5.94118V14.9124C24.1042 14.8141 23.6116 14.7646 23.1176 14.7647C19.8696 14.7647 17.1186 16.8732 16.1454 19.7943ZM8.41176 12.1912C8.41176 11.5821 7.91803 11.0882 7.30882 11.0882C6.69962 11.0882 6.20588 11.5821 6.20588 12.1912V15.1324C6.20588 15.7415 6.69962 16.2353 7.30882 16.2353C7.91803 16.2353 8.41176 15.7415 8.41176 15.1324V12.1912ZM12.0882 7.04412C12.0882 6.435 11.5945 5.94118 10.9853 5.94118C10.3762 5.94118 9.88235 6.435 9.88235 7.04412V15.1324C9.88235 15.7415 10.3762 16.2353 10.9853 16.2353C11.5945 16.2353 12.0882 15.7415 12.0882 15.1324V7.04412ZM15.7647 9.25C15.7647 8.64088 15.2709 8.14706 14.6618 8.14706C14.0526 8.14706 13.5588 8.64088 13.5588 9.25V15.1324C13.5588 15.7415 14.0526 16.2353 14.6618 16.2353C15.2709 16.2353 15.7647 15.7415 15.7647 15.1324V9.25Z" fill="url(#paint0_linear_358_24761)"/>
</g>
</g>
<defs>
<linearGradient id="paint0_linear_358_24761" x1="3.47917" y1="2.43182" x2="28.528" y2="26.9588" gradientUnits="userSpaceOnUse">
<stop stop-color="#9BBDFF"/>
<stop offset="1" stop-color="#3E69FF"/>
</linearGradient>
</defs>
</svg>
