<svg  viewBox="0 0 16 16" fill="none" xmlns="http://www.w3.org/2000/svg">
<g clip-path="url(#clip0_366_47923)">
<path d="M11.2628 4.51562C11.6623 4.51562 12.0048 4.2067 12.0048 3.8251V0.690517C12.0048 0.308915 11.6623 0 11.2628 0C10.8633 0 10.5398 0.308915 10.5398 0.690517V3.8251C10.5398 4.2067 10.8633 4.51562 11.2628 4.51562ZM9.81688 1.74446H6.16409V2.78932H9.81688V1.74446ZM14.088 1.74446H12.7277V2.78024H14.1356C14.5541 2.78024 14.8966 3.11641 14.8966 3.5071V5.91482H1.08442V3.5071C1.08442 3.10733 1.43639 2.78024 1.84542 2.78024H3.26278V1.74446H1.91201C0.865636 1.74446 0 2.57127 0 3.5707V14.1738C0 15.1823 0.827586 16 1.87396 16H14.088C15.1344 16 16 15.1823 16 14.1738V3.5707C16 2.56218 15.1439 1.74446 14.088 1.74446ZM14.9061 14.2192C14.9061 14.619 14.5541 14.9461 14.1451 14.9461H1.84542C1.42687 14.9461 1.08442 14.6099 1.08442 14.2192V6.9506H14.9156V14.2192H14.9061ZM3.97622 10.0852C4.58502 10.0852 5.07015 9.61272 5.07015 9.04032C5.07015 8.45883 4.58502 7.99546 3.97622 7.99546C3.36742 7.99546 2.88228 8.46792 2.88228 9.04032C2.88228 9.61272 3.37693 10.0852 3.97622 10.0852ZM7.98098 10.0852C8.58977 10.0852 9.07491 9.61272 9.07491 9.04032C9.07491 8.45883 8.58026 7.99546 7.98098 7.99546C7.37218 7.99546 6.88704 8.46792 6.88704 9.04032C6.88704 9.61272 7.38169 10.0852 7.98098 10.0852ZM3.95719 13.9103C4.56599 13.9103 5.05113 13.4378 5.05113 12.8654C5.05113 12.2839 4.56599 11.8206 3.95719 11.8206C3.34839 11.8206 2.86326 12.293 2.86326 12.8654C2.86326 13.4469 3.34839 13.9103 3.95719 13.9103ZM7.98098 13.9103C8.58977 13.9103 9.07491 13.4378 9.07491 12.8654C9.07491 12.2839 8.58026 11.8206 7.98098 11.8206C7.37218 11.8206 6.88704 12.293 6.88704 12.8654C6.88704 13.4469 7.38169 13.9103 7.98098 13.9103ZM11.9857 10.0852C12.5945 10.0852 13.0797 9.61272 13.0797 9.04032C13.0797 8.45883 12.585 7.99546 11.9857 7.99546C11.3769 7.99546 10.8918 8.46792 10.8918 9.04032C10.8918 9.61272 11.3864 10.0852 11.9857 10.0852ZM4.70868 4.51562C5.1082 4.51562 5.45065 4.2067 5.45065 3.8251V0.690517C5.45065 0.308915 5.1082 0 4.70868 0C4.30916 0 3.98573 0.308915 3.98573 0.690517V3.8251C3.98573 4.2067 4.30916 4.51562 4.70868 4.51562Z" fill="currentColor"/>
</g>
<defs>
<clipPath id="clip0_366_47923">
<rect width="16" height="16" fill="currentColor"/>
</clipPath>
</defs>
</svg>
