<svg viewBox="0 0 20 20" fill="none" xmlns="http://www.w3.org/2000/svg" id="icon-login-user-01">
    <g opacity="1.0">
        <path fill-rule="evenodd" clip-rule="evenodd"
            d="M8.21449 12.1453C5.13234 12.1453 2.5 12.5952 2.5 14.3978C2.5 16.2004 5.1163 16.6666 8.21449 16.6666C11.2974 16.6666 13.929 16.2159 13.929 14.4141C13.929 12.6122 11.3135 12.1453 8.21449 12.1453Z"
            stroke="currentColor" stroke-width="1.2" stroke-linecap="round" stroke-linejoin="round" />
        <path fill-rule="evenodd" clip-rule="evenodd"
            d="M8.09378 9.58333C10.0501 9.58333 11.6358 7.9978 11.6358 6.04167C11.6358 4.08553 10.0501 2.5 8.09378 2.5C6.13821 2.5 4.55251 4.08553 4.55251 6.04167C4.54553 7.99082 6.1196 9.57636 8.06974 9.58333H8.09378Z"
            stroke="currentColor" stroke-width="1.2" stroke-linecap="round" stroke-linejoin="round" />
        <path fill-rule="evenodd" clip-rule="evenodd"
            d="M16.6956 6.39055C16.4632 5.74237 15.8335 5.29069 15.1071 5.29029C14.1947 5.28729 13.4219 6.00275 13.4177 6.92597H13.4177V6.92823V6.93326V7.12222C12.9505 7.36312 12.6243 7.84101 12.6243 8.4071V9.48402C12.6243 10.3025 13.3062 10.9366 14.1104 10.9366H16.0975C16.9017 10.9366 17.5836 10.3025 17.5836 9.48402V8.4071C17.5836 7.71632 17.0979 7.15688 16.4629 6.99912C16.6768 6.88373 16.7801 6.62631 16.6956 6.39055ZM15.9185 6.95451C15.8457 6.89818 15.7876 6.82111 15.7543 6.72805C15.6658 6.48143 15.4155 6.29029 15.1062 6.29029H15.1042V6.29029C14.7104 6.28878 14.4198 6.59121 14.4177 6.92954V6.93326V6.95451H15.9185ZM14.0067 7.96458C14.0097 7.96403 14.0128 7.96345 14.0158 7.96284C14.0461 7.95739 14.0777 7.95451 14.1104 7.95451H16.0975C16.3824 7.95451 16.5836 8.1733 16.5836 8.4071V9.48402C16.5836 9.71782 16.3824 9.93661 16.0975 9.93661H14.1104C13.8255 9.93661 13.6243 9.71782 13.6243 9.48402V8.4071C13.6243 8.20284 13.7779 8.01004 14.0067 7.96458Z"
            fill="currentColor" />
        <path d="M15.105 8.66699V9.22504" stroke="currentColor" stroke-linecap="round"
            stroke-linejoin="round" />
    </g>
</svg>
    