<svg width="27" height="23" viewBox="0 0 27 23" fill="none" xmlns="http://www.w3.org/2000/svg">
<g id="Group 784">
<g id="Vector">
<path d="M21.033 7.08944C16.533 6.12516 16.533 9.1787 13.1581 9.1787C9.78311 9.1787 9.78311 5.96445 5.28315 7.08944C0.783198 8.21443 -1.46678 23 1.90819 23C5.28315 23 7.53313 18.8215 13.1581 18.8215C18.783 18.8215 21.033 23 24.408 23C27.7829 23 25.533 8.21443 21.033 7.08944ZM9.94382 15.4465H7.85456V17.5358H5.60458V15.4465H3.51531V13.3572H5.60458V11.268H7.69385V13.3572H9.94382V15.4465ZM19.5866 17.0536C18.1402 17.0536 16.8545 15.9286 16.8545 14.3215C16.8545 12.7144 18.1402 11.7501 19.5866 11.7501C21.033 11.7501 22.3187 12.8751 22.3187 14.4822C22.3187 16.0893 21.033 17.0536 19.5866 17.0536Z" fill="black"/>
<path d="M21.033 7.08944C16.533 6.12516 16.533 9.1787 13.1581 9.1787C9.78311 9.1787 9.78311 5.96445 5.28315 7.08944C0.783198 8.21443 -1.46678 23 1.90819 23C5.28315 23 7.53313 18.8215 13.1581 18.8215C18.783 18.8215 21.033 23 24.408 23C27.7829 23 25.533 8.21443 21.033 7.08944ZM9.94382 15.4465H7.85456V17.5358H5.60458V15.4465H3.51531V13.3572H5.60458V11.268H7.69385V13.3572H9.94382V15.4465ZM19.5866 17.0536C18.1402 17.0536 16.8545 15.9286 16.8545 14.3215C16.8545 12.7144 18.1402 11.7501 19.5866 11.7501C21.033 11.7501 22.3187 12.8751 22.3187 14.4822C22.3187 16.0893 21.033 17.0536 19.5866 17.0536Z" fill="url(#paint0_linear_4819_16732)"/>
</g>
<g id="Vector_2">
<path d="M13.1576 7.57136C13.6397 7.57136 14.1219 7.41065 14.604 7.24993C14.4433 6.92851 14.2826 6.44637 14.2826 5.80352V4.67853C14.2826 3.55354 15.2469 2.58927 16.3719 2.58927H20.7111V0.5H15.8897C13.8004 0.5 12.0326 2.26784 12.0326 4.35711V5.80352C12.0326 6.44637 11.8719 6.92851 11.7112 7.24993C12.1933 7.57136 12.6755 7.57136 13.1576 7.57136Z" fill="black"/>
<path d="M13.1576 7.57136C13.6397 7.57136 14.1219 7.41065 14.604 7.24993C14.4433 6.92851 14.2826 6.44637 14.2826 5.80352V4.67853C14.2826 3.55354 15.2469 2.58927 16.3719 2.58927H20.7111V0.5H15.8897C13.8004 0.5 12.0326 2.26784 12.0326 4.35711V5.80352C12.0326 6.44637 11.8719 6.92851 11.7112 7.24993C12.1933 7.57136 12.6755 7.57136 13.1576 7.57136Z" fill="url(#paint1_linear_4819_16732)"/>
</g>
</g>
<defs>
<linearGradient id="paint0_linear_4819_16732" x1="23.3507" y1="19.9239" x2="7.99052" y2="1.70848" gradientUnits="userSpaceOnUse">
<stop stop-color="#C65BB5"/>
<stop offset="1" stop-color="#E8D3FD"/>
</linearGradient>
<linearGradient id="paint1_linear_4819_16732" x1="19.7736" y1="6.22444" x2="12.9601" y2="-0.22516" gradientUnits="userSpaceOnUse">
<stop stop-color="#C65BB5"/>
<stop offset="1" stop-color="#E8D3FD"/>
</linearGradient>
</defs>
</svg>
