<svg  viewBox="0 0 20 20" fill="none" xmlns="http://www.w3.org/2000/svg">
<path d="M2.84592 6.76924L10.1536 9.92309H10.3844L17.4613 6.69231C17.6921 6.61539 17.6921 6.3077 17.4613 6.15383L10.769 2.84617C10.6921 2.84617 10.6152 2.76926 10.5382 2.84617L2.84592 6.23076C2.69208 6.38461 2.69208 6.69231 2.84592 6.76924ZM10.2305 14.7692L5.15362 12.5385H4.92286L2.84592 13.4615C2.61516 13.5385 2.61516 13.8462 2.84592 14L10.1536 17.1538H10.3844L17.4613 13.9231C17.6921 13.8462 17.6921 13.5385 17.4613 13.3846L15.5382 12.3846C15.4613 12.3846 15.3844 12.3077 15.3075 12.3846L10.3844 14.6154C10.3844 14.7692 10.3075 14.7692 10.2305 14.7692Z" fill="#999999"/>
<path d="M10.2305 11.3077L5.15362 9.07692H4.92286L2.84592 10C2.61516 10.0769 2.61516 10.3846 2.84592 10.5385L10.1536 13.6923H10.3844L17.4613 10.4615C17.6921 10.3846 17.6921 10.0769 17.4613 9.92307L15.5382 8.92307C15.4613 8.92307 15.3844 8.84616 15.3075 8.92307L10.3844 11.1539C10.3844 11.3077 10.3075 11.3077 10.2305 11.3077V11.3077Z" fill="#999999"/>
</svg>
