<svg viewBox="0 0 16 14" fill="none" xmlns="http://www.w3.org/2000/svg">
    <g clip-path="url(#clip0_358_24097)">
        <path
            d="M2.24847 14C1.65238 13.9994 1.08086 13.7651 0.659318 13.3484C0.237781 12.9318 0.000663534 12.3668 0 11.7774V2.22295C0.000663359 1.63358 0.237768 1.06855 0.659295 0.65181C1.08082 0.235069 1.65234 0.000655828 2.24847 0L13.7528 0C14.349 0.000655825 14.9205 0.235069 15.342 0.65181C15.7635 1.06855 16.0006 1.63358 16.0013 2.22295V11.7774C16.0006 12.3668 15.7635 12.9318 15.342 13.3484C14.9204 13.7651 14.3489 13.9994 13.7528 14H2.24847ZM0.983212 11.7771C0.983671 12.1087 1.11714 12.4267 1.35436 12.6612C1.59158 12.8957 1.91319 13.0277 2.24866 13.0281H13.7528C14.0883 13.0276 14.4098 12.8957 14.647 12.6611C14.8842 12.4266 15.0176 12.1087 15.0181 11.7771V2.22295C15.0177 1.89124 14.8842 1.57324 14.647 1.33867C14.4098 1.10411 14.0881 0.972123 13.7526 0.971669H2.24847C1.91299 0.972173 1.59141 1.10418 1.35423 1.33874C1.11704 1.5733 0.98362 1.89128 0.983212 2.22295V4.64068H7.83967C9.23602 4.64068 10.3725 5.76521 10.3725 7.14533C10.3725 8.52545 9.23602 9.64941 7.83967 9.64941H0.983212V11.7771ZM0.983212 8.67774H7.83967C8.25076 8.67774 8.64501 8.51629 8.93569 8.22891C9.22637 7.94152 9.38968 7.55175 9.38968 7.14533C9.38968 6.73891 9.22637 6.34914 8.93569 6.06175C8.64501 5.77437 8.25076 5.61292 7.83967 5.61292H0.983212V8.67774Z"
            fill="currentColor" />
        <path
            d="M8.39896 7.14549C8.39888 6.96635 8.33901 6.79224 8.22864 6.65017C8.11827 6.50809 7.96357 6.40599 7.78853 6.35969C7.61349 6.31338 7.42789 6.32547 7.26051 6.39408C7.09313 6.46268 6.95331 6.58397 6.86275 6.73913C6.77219 6.89429 6.73594 7.07466 6.75963 7.25226C6.78331 7.42986 6.8656 7.59478 6.99374 7.72144C7.12189 7.84809 7.28872 7.92941 7.46836 7.95278C7.64801 7.97615 7.83044 7.94027 7.98736 7.8507C8.11255 7.77922 8.2165 7.67642 8.28875 7.55263C8.361 7.42883 8.39901 7.28841 8.39896 7.14549Z"
            fill="currentColor" />
    </g>
    <defs>
        <clipPath id="clip0_358_24097">
            <rect width="16" height="14" fill="currentColor" />
        </clipPath>
    </defs>
</svg>
    