<svg viewBox="0 0 24 24" fill="none" xmlns="http://www.w3.org/2000/svg">
<path d="M18.9687 5.53697H18.3579C18.6676 5.01186 18.8036 4.511 18.7601 4.04641C18.7241 3.65758 18.5398 3.10147 17.8645 2.65827C17.3047 2.28995 16.5847 2.19961 15.7859 2.39917C14.4905 2.7244 12.9575 3.8425 11.9495 5.19372C10.9409 3.84252 9.40904 2.7244 8.11372 2.39917C7.31428 2.19832 6.59367 2.28929 6.03387 2.65827C5.35917 3.10147 5.17484 3.65758 5.13883 4.04641C5.09541 4.511 5.23007 5.01186 5.54103 5.53697H4.93028C4.00552 5.53697 3.25293 6.29014 3.25293 7.2156V9.3777C3.25293 10.1098 3.73579 10.7568 4.43439 10.9741C4.36799 11.1578 4.33323 11.3477 4.33323 11.5401V18.0268C4.33323 18.9516 5.08668 19.7051 6.01153 19.7051H17.8894C18.8141 19.7051 19.5664 18.9516 19.5664 18.0268V11.5401C19.5664 11.3464 19.5329 11.1559 19.4665 10.9734C20.1641 10.7549 20.6458 10.1079 20.6458 9.37768V7.21615C20.6458 6.29076 19.8935 5.53697 18.9687 5.53697ZM17.8893 18.5097H12.5466V11.0566H17.8894C18.1556 11.0566 18.3716 11.2738 18.3716 11.5401V18.0268C18.3716 18.2931 18.1556 18.5097 17.8893 18.5097ZM13.2045 5.53697C14.0542 4.55688 15.1695 3.78667 16.0751 3.55948C16.5456 3.44157 16.9304 3.47385 17.2091 3.65758C17.5052 3.85212 17.5578 4.02559 17.5697 4.1566C17.6168 4.63697 17.1017 5.28463 16.8584 5.53697H13.2045ZM19.4503 7.21617V9.3777C19.4503 9.64399 19.235 9.86054 18.9687 9.86054H12.5466V6.73299H18.9687C19.235 6.73299 19.4503 6.94993 19.4503 7.21617ZM11.3518 11.0566V18.5097H6.01151C5.74459 18.5097 5.52858 18.293 5.52858 18.0268V11.5401C5.52858 11.2738 5.74459 11.0566 6.01151 11.0566H11.3518ZM6.3293 4.1566C6.34107 4.02559 6.39447 3.8521 6.68931 3.65758C6.96608 3.47385 7.35091 3.43999 7.82389 3.55948C8.72447 3.7854 9.83856 4.55567 10.6901 5.53697H7.03933C6.82148 5.31633 6.28149 4.64849 6.3293 4.1566ZM4.4474 7.21617C4.4474 6.94996 4.66341 6.73299 4.93026 6.73299H11.3518V9.86054H4.93026C4.66341 9.86054 4.4474 9.64399 4.4474 9.3777V7.21617Z" fill="#1E2329" stroke="#1E2329" stroke-width="0.2"/>
</svg>
