<svg viewBox="0 0 16 16" fill="none" xmlns="http://www.w3.org/2000/svg" id="icon-general-eye-open">
    <path
        d="M7.99984 10.6667C8.83317 10.6667 9.54162 10.3751 10.1252 9.79199C10.7087 9.20888 11.0003 8.50043 10.9998 7.66666C10.9998 6.83332 10.7083 6.1251 10.1252 5.54199C9.54206 4.95888 8.83362 4.6671 7.99984 4.66666C7.1665 4.66666 6.45828 4.95843 5.87517 5.54199C5.29206 6.12555 5.00028 6.83377 4.99984 7.66666C4.99984 8.49999 5.29162 9.20843 5.87517 9.79199C6.45873 10.3755 7.16695 10.6671 7.99984 10.6667ZM7.99984 9.46666C7.49984 9.46666 7.07495 9.29155 6.72517 8.94132C6.37539 8.5911 6.20028 8.16621 6.19984 7.66666C6.19984 7.16666 6.37495 6.74177 6.72517 6.39199C7.07539 6.04221 7.50028 5.8671 7.99984 5.86666C8.49984 5.86666 8.92495 6.04177 9.27517 6.39199C9.62539 6.74221 9.80028 7.1671 9.79984 7.66666C9.79984 8.16666 9.62495 8.59177 9.27517 8.94199C8.92539 9.29221 8.50028 9.4671 7.99984 9.46666ZM7.99984 12.6667C6.37761 12.6667 4.89984 12.214 3.5665 11.3087C2.23317 10.4033 1.2665 9.18932 0.666504 7.66666C1.2665 6.14443 2.23317 4.93066 3.5665 4.02532C4.89984 3.11999 6.37761 2.6671 7.99984 2.66666C9.62206 2.66666 11.0998 3.11955 12.4332 4.02532C13.7665 4.9311 14.7332 6.14488 15.3332 7.66666C14.7332 9.18888 13.7665 10.4029 12.4332 11.3087C11.0998 12.2144 9.62206 12.6671 7.99984 12.6667Z"
        fill="currentColor" />
</svg>
    