<svg viewBox="0 0 20 20" xmlns="http://www.w3.org/2000/svg" id="icon-login-eye-open">
    <path fill-rule="evenodd" clip-rule="evenodd"
        d="M6.74805 9.99992C6.74805 11.7777 8.20333 13.2242 10.0001 13.2242C11.7887 13.2242 13.244 11.7777 13.244 9.99992C13.244 8.21406 11.7887 6.7676 10.0001 6.7676C8.20333 6.7676 6.74805 8.21406 6.74805 9.99992ZM14.7806 5.0383C16.2033 6.13729 17.4147 7.74537 18.2846 9.75749C18.3497 9.91103 18.3497 10.0888 18.2846 10.2343C16.5448 14.2585 13.4472 16.6666 10.0001 16.6666H9.99195C6.55293 16.6666 3.45537 14.2585 1.71553 10.2343C1.65049 10.0888 1.65049 9.91103 1.71553 9.75749C3.45537 5.73325 6.55293 3.33325 9.99195 3.33325H10.0001C11.7237 3.33325 13.3578 3.93123 14.7806 5.0383ZM10.0014 12.0099C11.1152 12.0099 12.0257 11.1049 12.0257 9.99782C12.0257 8.88267 11.1152 7.97762 10.0014 7.97762C9.90379 7.97762 9.80623 7.9857 9.7168 8.00186C9.68428 8.89075 8.95257 9.60186 8.05013 9.60186H8.00948C7.98509 9.73116 7.96883 9.86045 7.96883 9.99782C7.96883 11.1049 8.8794 12.0099 10.0014 12.0099Z"
    />
</svg>
    