<svg  viewBox="0 0 32 32" fill="none" xmlns="http://www.w3.org/2000/svg">
<g id="icon_opinion_zl">
<g id="Vector">
<path d="M25.516 4H6.484C5.69825 4 5 4.70779 5 5.50373V27H7.1825C7.1825 25.7615 8.14275 24.7887 9.365 24.7887C10.5872 24.7887 11.5478 25.7615 11.5478 27H13.8175C13.8175 25.7615 14.7777 24.7887 16 24.7887C17.2222 24.7887 18.1828 25.7615 18.1828 27H20.3653C20.3653 25.7615 21.3252 24.7887 22.5478 24.7887C23.77 24.7887 24.73 25.7615 24.73 27H27V5.50373C27 4.70779 26.3018 4 25.516 4ZM10.0635 11.5194C10.0635 11.0771 10.3255 10.8116 10.762 10.8116H17.3095C17.7463 10.8116 18.0083 11.0771 18.0083 11.5194V12.2272C18.0083 12.6695 17.7463 12.935 17.3095 12.935H10.762C10.3255 12.935 10.0635 12.5811 10.0635 12.2272V11.5194ZM21.6748 17.3577V18.0655C21.6748 18.5078 21.4128 18.7733 20.976 18.7733H10.762C10.3255 18.7733 10.0635 18.5078 10.0635 18.0655V17.3577C10.0635 16.9154 10.3255 16.6502 10.762 16.6502H21.0635C21.5 16.6502 21.762 16.9154 21.6748 17.3577Z" fill="black"/>
<path d="M25.516 4H6.484C5.69825 4 5 4.70779 5 5.50373V27H7.1825C7.1825 25.7615 8.14275 24.7887 9.365 24.7887C10.5872 24.7887 11.5478 25.7615 11.5478 27H13.8175C13.8175 25.7615 14.7777 24.7887 16 24.7887C17.2222 24.7887 18.1828 25.7615 18.1828 27H20.3653C20.3653 25.7615 21.3252 24.7887 22.5478 24.7887C23.77 24.7887 24.73 25.7615 24.73 27H27V5.50373C27 4.70779 26.3018 4 25.516 4ZM10.0635 11.5194C10.0635 11.0771 10.3255 10.8116 10.762 10.8116H17.3095C17.7463 10.8116 18.0083 11.0771 18.0083 11.5194V12.2272C18.0083 12.6695 17.7463 12.935 17.3095 12.935H10.762C10.3255 12.935 10.0635 12.5811 10.0635 12.2272V11.5194ZM21.6748 17.3577V18.0655C21.6748 18.5078 21.4128 18.7733 20.976 18.7733H10.762C10.3255 18.7733 10.0635 18.5078 10.0635 18.0655V17.3577C10.0635 16.9154 10.3255 16.6502 10.762 16.6502H21.0635C21.5 16.6502 21.762 16.9154 21.6748 17.3577Z" fill="url(#paint0_linear_358_24760)"/>
</g>
</g>
<defs>
<linearGradient id="paint0_linear_358_24760" x1="24.7083" y1="22.619" x2="3.74094" y2="7.70257" gradientUnits="userSpaceOnUse">
<stop stop-color="#5BC679"/>
<stop offset="1" stop-color="#A1FAB5"/>
</linearGradient>
</defs>
</svg>
