<svg width="32" height="32" viewBox="0 0 32 32" fill="none" xmlns="http://www.w3.org/2000/svg">
<g id="icon_opinion_ck">
<path id="Vector" d="M28 22.7169C28 23.0351 27.9426 23.3317 27.8282 23.6077C27.7139 23.883 27.5508 24.1257 27.3395 24.3353C27.128 24.5446 26.8813 24.7078 26.5992 24.8242C26.3174 24.9408 26.009 24.9996 25.674 25H6.4847C6.14993 25 5.83288 24.9416 5.53331 24.8242C5.23401 24.707 4.96965 24.5438 4.74002 24.3353C4.51048 24.1264 4.32991 23.8838 4.19794 23.6077C4.06589 23.3312 4 23.0344 4 22.7169V10.1937C4 9.55755 4.23341 9.01774 4.70015 8.57455C5.16709 8.13124 5.73561 7.90966 6.40531 7.90966H25.5946C26.2644 7.90966 26.8328 8.1312 27.2997 8.57455C27.7666 9.01774 28 9.55758 28 10.1937V13.6067H22.0001C21.3301 13.6067 20.7616 13.8243 20.2948 14.2595C19.8279 14.6948 19.5945 15.2304 19.5945 15.8659C19.6119 16.3011 19.7089 16.6861 19.8855 17.0207C20.0265 17.305 20.2599 17.5643 20.5858 17.7989C20.9115 18.0334 21.3831 18.1505 22 18.1505H27.9999V22.7184V22.7169H28ZM24.4054 6.75557H12.4054C13.3572 6.28718 14.256 5.83519 15.1017 5.3999C15.8421 5.03175 16.5734 4.66349 17.2958 4.29578C18.018 3.92796 18.5818 3.64343 18.9874 3.44204C19.6042 3.12389 20.1549 2.97762 20.6391 3.00277C21.1236 3.02792 21.5332 3.1074 21.8681 3.24121C22.2559 3.42551 22.5908 3.66795 22.8729 3.96894L24.4054 6.75557ZM20.8107 15.8659C20.8107 15.5478 20.9253 15.28 21.1541 15.0629C21.3831 14.8455 21.665 14.7367 22.0001 14.7367C22.335 14.7367 22.6168 14.8455 22.8456 15.0629C23.0746 15.28 23.189 15.5478 23.189 15.8659C23.189 16.1839 23.0746 16.4558 22.8456 16.6817C22.6168 16.9077 22.335 17.0207 22.0001 17.0207C21.665 17.0207 21.3831 16.9077 21.1541 16.6817C20.9253 16.4558 20.8107 16.1839 20.8107 15.8659Z" fill="url(#paint0_linear_358_24754)"/>
</g>
<defs>
<linearGradient id="paint0_linear_358_24754" x1="3.5" y1="2.5" x2="25.5" y2="26" gradientUnits="userSpaceOnUse">
<stop stop-color="#9BD5FF"/>
<stop offset="1" stop-color="#3E97FF"/>
</linearGradient>
</defs>
</svg>
