<svg  viewBox="0 0 24 18" fill="none" xmlns="http://www.w3.org/2000/svg">
<path d="M22.1926 8.82499C21.4938 6.35156 20.5336 4.05408 20.1993 3.42818C19.777 2.6389 19.1963 2.03311 18.4724 1.63093C17.7233 1.21366 16.7958 1 15.7174 1H8.28207C7.20372 1 6.27618 1.21115 5.52712 1.63093C4.8057 2.03311 4.22505 2.6389 3.80024 3.42818C3.46341 4.05408 2.50571 6.35156 1.80692 8.82499C0.874354 12.1279 0.748672 14.4757 1.43741 15.8054C1.81949 16.5419 2.45292 16.9868 3.27489 17.0899C3.61423 17.1326 3.92844 17.1527 4.22253 17.1527C6.42449 17.1527 7.43246 16.0417 8.33235 15.0463C8.86524 14.4581 9.37048 13.9 10.1145 13.5909H14.2947C15.0337 13.9 15.4636 14.4405 15.9562 15.0613C16.4087 15.6319 16.8787 16.2201 17.6127 16.6349C18.4372 17.0999 19.4552 17.2507 20.7271 17.0899C21.5491 16.9868 22.1825 16.5419 22.5646 15.8054C23.2508 14.4757 23.1252 12.1279 22.1926 8.82499ZM21.446 15.2298C21.2525 15.6018 20.9835 15.7928 20.5688 15.8431C20.2822 15.8783 20.0208 15.8959 19.782 15.8959C18.2261 15.8959 17.6454 15.1669 16.9391 14.2771C16.3861 13.5833 15.7602 12.794 14.6341 12.3717C14.5637 12.3441 14.4883 12.3315 14.4129 12.3315H9.99387C9.91846 12.3315 9.84305 12.3441 9.77267 12.3717C8.68677 12.779 8.00306 13.5356 7.39978 14.2017C6.427 15.275 5.66034 16.1221 3.42822 15.8431C3.01347 15.7903 2.74451 15.6018 2.55096 15.2298C2.03063 14.2218 2.19402 12.0701 3.01347 9.16936C3.69969 6.73866 4.63226 4.53419 4.90624 4.02392C5.54974 2.81988 6.62307 2.26185 8.27956 2.26185H15.7149C17.3714 2.26185 18.4448 2.82239 19.0882 4.02392C19.3622 4.53419 20.2948 6.73866 20.981 9.16936C21.803 12.0701 21.9664 14.2218 21.446 15.2298Z" fill="#1E2329" stroke="#1E2329" stroke-width="0.5"/>
<path d="M10.4443 7.26509H8.67719V5.49296C8.67719 5.21646 8.45097 4.99023 8.17446 4.99023C7.89796 4.99023 7.67173 5.21646 7.67173 5.49296V7.26509H5.91972C5.64322 7.26509 5.41699 7.49131 5.41699 7.76782C5.41699 8.04432 5.64322 8.27054 5.91972 8.27054H7.67173V10.0175C7.67173 10.294 7.89796 10.5203 8.17446 10.5203C8.45097 10.5203 8.67719 10.294 8.67719 10.0175V8.27054H10.4443C10.7208 8.27054 10.947 8.04432 10.947 7.76782C10.947 7.49131 10.7208 7.26509 10.4443 7.26509Z" fill="#1E2329" stroke="#1E2329" stroke-width="0.5"/>
<path d="M14.1787 6.81494C14.1787 7.09427 14.2897 7.36216 14.4872 7.55967C14.6847 7.75719 14.9526 7.86816 15.2319 7.86816C15.5113 7.86816 15.7792 7.75719 15.9767 7.55967C16.1742 7.36216 16.2851 7.09427 16.2851 6.81494C16.2851 6.53561 16.1742 6.26772 15.9767 6.0702C15.7792 5.87268 15.5113 5.76172 15.2319 5.76172C14.9526 5.76172 14.6847 5.87268 14.4872 6.0702C14.2897 6.26772 14.1787 6.53561 14.1787 6.81494Z" fill="#1E2329" stroke="#1E2329" stroke-width="0.5"/>
<path d="M16.6572 9.2915C16.6572 9.42981 16.6845 9.56677 16.7374 9.69455C16.7903 9.82233 16.8679 9.93844 16.9657 10.0362C17.0635 10.134 17.1796 10.2116 17.3074 10.2645C17.4352 10.3175 17.5721 10.3447 17.7104 10.3447C17.8488 10.3447 17.9857 10.3175 18.1135 10.2645C18.2413 10.2116 18.3574 10.134 18.4552 10.0362C18.553 9.93844 18.6306 9.82233 18.6835 9.69455C18.7364 9.56677 18.7637 9.42981 18.7637 9.2915C18.7637 9.15319 18.7364 9.01623 18.6835 8.88845C18.6306 8.76067 18.553 8.64456 18.4552 8.54676C18.3574 8.44896 18.2413 8.37138 18.1135 8.31845C17.9857 8.26552 17.8488 8.23828 17.7104 8.23828C17.5721 8.23828 17.4352 8.26552 17.3074 8.31845C17.1796 8.37138 17.0635 8.44896 16.9657 8.54676C16.8679 8.64456 16.7903 8.76067 16.7374 8.88845C16.6845 9.01623 16.6572 9.15319 16.6572 9.2915Z" fill="#1E2329" stroke="#1E2329" stroke-width="0.5"/>
</svg>
