<svg viewBox="0 0 16 16" fill="none" xmlns="http://www.w3.org/2000/svg" id="icon-general-eye-close">
    <path
        d="M13.1998 15.0667L10.3998 12.3C10.0109 12.4223 9.61939 12.514 9.22517 12.5754C8.83095 12.6367 8.4225 12.6671 7.99984 12.6667C6.32206 12.6667 4.82762 12.2029 3.5165 11.2754C2.20539 10.3478 1.25539 9.14492 0.666504 7.6667C0.899837 7.07781 1.19428 6.53048 1.54984 6.0247C1.90539 5.51892 2.31095 5.06625 2.7665 4.6667L0.933171 2.80003L1.8665 1.8667L14.1332 14.1334L13.1998 15.0667ZM7.99984 10.6667C8.12206 10.6667 8.23606 10.6611 8.34184 10.65C8.44762 10.6389 8.56139 10.6167 8.68317 10.5834L5.08317 6.98337C5.04984 7.10559 5.02762 7.21959 5.0165 7.32537C5.00539 7.43114 4.99984 7.54492 4.99984 7.6667C4.99984 8.50003 5.29162 9.20848 5.87517 9.79203C6.45873 10.3756 7.16695 10.6671 7.99984 10.6667ZM12.8665 10.9667L10.7498 8.8667C10.8276 8.67781 10.8887 8.48625 10.9332 8.29203C10.9776 8.09781 10.9998 7.88937 10.9998 7.6667C10.9998 6.83337 10.7083 6.12514 10.1252 5.54203C9.54206 4.95892 8.83362 4.66714 7.99984 4.6667C7.77762 4.6667 7.56939 4.68892 7.37517 4.73337C7.18095 4.77781 6.98917 4.84448 6.79984 4.93337L5.09984 3.23337C5.55539 3.04448 6.02206 2.90292 6.49984 2.8087C6.97762 2.71448 7.47762 2.66714 7.99984 2.6667C9.67762 2.6667 11.1721 3.1307 12.4832 4.0587C13.7943 4.9867 14.7443 6.18937 15.3332 7.6667C15.0776 8.32225 14.7414 8.9307 14.3245 9.49203C13.9076 10.0534 13.4216 10.5449 12.8665 10.9667ZM9.78317 7.90003L7.78317 5.90003C8.09428 5.84448 8.3805 5.86959 8.64184 5.97537C8.90317 6.08114 9.12806 6.23381 9.3165 6.43337C9.50539 6.63337 9.64162 6.86403 9.72517 7.12537C9.80873 7.3867 9.82806 7.64492 9.78317 7.90003Z"
        fill="currentColor" />
</svg>
    