<svg  viewBox="0 0 32 32" fill="none" xmlns="http://www.w3.org/2000/svg">
<g id="icon_opinion_qt">
<g id="Vector">
<path d="M9.81163 5H10.5C11.132 4.99977 11.7579 5.12406 12.3419 5.36577C12.9258 5.60747 13.4565 5.96186 13.9035 6.40868C14.3504 6.8555 14.705 7.38601 14.9469 7.9699C15.1889 8.55379 15.3134 9.17961 15.3134 9.81163V15.3116H9.81337C9.18135 15.3119 8.55548 15.1876 7.9715 14.9459C7.38753 14.7042 6.85689 14.3498 6.40991 13.903C5.96292 13.4561 5.60835 12.9256 5.36643 12.3417C5.12451 11.7578 5 11.132 5 10.5V9.81163C5 8.53551 5.50694 7.31165 6.40929 6.40929C7.31165 5.50694 8.53551 5 9.81163 5ZM9.81163 16.6866H15.3116V22.1866C15.3119 22.8186 15.1876 23.4444 14.9459 24.0284C14.7043 24.6123 14.3499 25.1429 13.9032 25.5899C13.4564 26.0369 12.926 26.3915 12.3421 26.6334C11.7583 26.8754 11.1325 26.9999 10.5006 27H9.81163C8.53551 27 7.31165 26.4931 6.40929 25.5907C5.50694 24.6883 5 23.4645 5 22.1884V21.5C4.99977 20.868 5.12406 20.2421 5.36577 19.6581C5.60747 19.0742 5.96186 18.5435 6.40868 18.0965C6.8555 17.6496 7.38601 17.295 7.9699 17.0531C8.55379 16.8111 9.17961 16.6866 9.81163 16.6866ZM21.5 5H22.1884C23.4645 5 24.6884 5.50694 25.5907 6.40929C26.4931 7.31165 27 8.53551 27 9.81163V10.5C27.0002 11.132 26.8759 11.7579 26.6342 12.3419C26.3925 12.9258 26.0381 13.4565 25.5913 13.9035C25.1445 14.3504 24.614 14.705 24.0301 14.9469C23.4462 15.1889 22.8204 15.3134 22.1884 15.3134H16.6884V9.81337C16.6881 9.1814 16.8124 8.55557 17.0541 7.97164C17.2957 7.3877 17.6501 6.85709 18.0968 6.41011C18.5436 5.96314 19.074 5.60855 19.6579 5.3666C20.2417 5.12465 20.8675 5.00008 21.4994 5H21.5ZM16.6866 16.6866H22.1866C22.8188 16.6864 23.4448 16.8108 24.0289 17.0526C24.613 17.2944 25.1437 17.6489 25.5907 18.0959C26.0377 18.5429 26.3923 19.0736 26.6341 19.6577C26.8759 20.2418 27.0002 20.8678 27 21.5V22.1884C27 23.4645 26.4931 24.6883 25.5907 25.5907C24.6884 26.4931 23.4645 27 22.1884 27H21.5C20.868 27.0002 20.2421 26.8759 19.6581 26.6342C19.0742 26.3925 18.5435 26.0381 18.0965 25.5913C17.6496 25.1445 17.295 24.614 17.0531 24.0301C16.8111 23.4462 16.6866 22.8204 16.6866 22.1884V16.6866Z" fill="black"/>
<path d="M9.81163 5H10.5C11.132 4.99977 11.7579 5.12406 12.3419 5.36577C12.9258 5.60747 13.4565 5.96186 13.9035 6.40868C14.3504 6.8555 14.705 7.38601 14.9469 7.9699C15.1889 8.55379 15.3134 9.17961 15.3134 9.81163V15.3116H9.81337C9.18135 15.3119 8.55548 15.1876 7.9715 14.9459C7.38753 14.7042 6.85689 14.3498 6.40991 13.903C5.96292 13.4561 5.60835 12.9256 5.36643 12.3417C5.12451 11.7578 5 11.132 5 10.5V9.81163C5 8.53551 5.50694 7.31165 6.40929 6.40929C7.31165 5.50694 8.53551 5 9.81163 5ZM9.81163 16.6866H15.3116V22.1866C15.3119 22.8186 15.1876 23.4444 14.9459 24.0284C14.7043 24.6123 14.3499 25.1429 13.9032 25.5899C13.4564 26.0369 12.926 26.3915 12.3421 26.6334C11.7583 26.8754 11.1325 26.9999 10.5006 27H9.81163C8.53551 27 7.31165 26.4931 6.40929 25.5907C5.50694 24.6883 5 23.4645 5 22.1884V21.5C4.99977 20.868 5.12406 20.2421 5.36577 19.6581C5.60747 19.0742 5.96186 18.5435 6.40868 18.0965C6.8555 17.6496 7.38601 17.295 7.9699 17.0531C8.55379 16.8111 9.17961 16.6866 9.81163 16.6866ZM21.5 5H22.1884C23.4645 5 24.6884 5.50694 25.5907 6.40929C26.4931 7.31165 27 8.53551 27 9.81163V10.5C27.0002 11.132 26.8759 11.7579 26.6342 12.3419C26.3925 12.9258 26.0381 13.4565 25.5913 13.9035C25.1445 14.3504 24.614 14.705 24.0301 14.9469C23.4462 15.1889 22.8204 15.3134 22.1884 15.3134H16.6884V9.81337C16.6881 9.1814 16.8124 8.55557 17.0541 7.97164C17.2957 7.3877 17.6501 6.85709 18.0968 6.41011C18.5436 5.96314 19.074 5.60855 19.6579 5.3666C20.2417 5.12465 20.8675 5.00008 21.4994 5H21.5ZM16.6866 16.6866H22.1866C22.8188 16.6864 23.4448 16.8108 24.0289 17.0526C24.613 17.2944 25.1437 17.6489 25.5907 18.0959C26.0377 18.5429 26.3923 19.0736 26.6341 19.6577C26.8759 20.2418 27.0002 20.8678 27 21.5V22.1884C27 23.4645 26.4931 24.6883 25.5907 25.5907C24.6884 26.4931 23.4645 27 22.1884 27H21.5C20.868 27.0002 20.2421 26.8759 19.6581 26.6342C19.0742 26.3925 18.5435 26.0381 18.0965 25.5913C17.6496 25.1445 17.295 24.614 17.0531 24.0301C16.8111 23.4462 16.6866 22.8204 16.6866 22.1884V16.6866Z" fill="url(#paint0_linear_358_24762)"/>
</g>
</g>
<defs>
<linearGradient id="paint0_linear_358_24762" x1="4.54167" y1="4.5" x2="26.5847" y2="26.0838" gradientUnits="userSpaceOnUse">
<stop stop-color="#B0D6FF"/>
<stop offset="1" stop-color="#5E9BE3"/>
</linearGradient>
</defs>
</svg>
