<svg viewBox="0 0 20 20" fill="none" xmlns="http://www.w3.org/2000/svg" id="icon-general-trumpet-01">
    <path fill-rule="evenodd" clip-rule="evenodd"
        d="M12.3518 4.06605C12.5455 3.75293 12.9563 3.6561 13.2694 3.84979C15.3566 5.14085 16.7497 7.45225 16.7497 10.0901C16.7497 12.7694 15.3126 15.1126 13.17 16.3913C12.8539 16.5799 12.4446 16.4766 12.2559 16.1604C12.0672 15.8443 12.1706 15.435 12.4867 15.2463C14.2428 14.1983 15.4164 12.2809 15.4164 10.0901C15.4164 7.93328 14.2789 6.04201 12.568 4.98373C12.2549 4.79003 12.1581 4.37918 12.3518 4.06605ZM9.41668 4.09033V16.0904C7.08334 16.0904 5.34967 13.037 5.34967 13.037H3.41667C3.23986 13.037 3.07029 12.9668 2.94526 12.8418C2.82024 12.7167 2.75 12.5472 2.75 12.3703V7.76034C2.75 7.58353 2.82024 7.41396 2.94526 7.28893C3.07029 7.16391 3.23986 7.09367 3.41667 7.09367H5.34967C5.34967 7.09367 7.08334 4.09033 9.41668 4.09033ZM12.4578 6.54048C12.2039 6.28664 11.7924 6.28664 11.5385 6.54048C11.2847 6.79432 11.2847 7.20588 11.5385 7.45972C11.965 7.88617 12.4832 8.66779 12.6316 9.57954C12.7735 10.451 12.5887 11.4903 11.5385 12.5405C11.2847 12.7943 11.2847 13.2059 11.5385 13.4597C11.7924 13.7136 12.2039 13.7136 12.4578 13.4597C13.8076 12.1099 14.1228 10.6492 13.9147 9.37066C13.7131 8.13241 13.0313 7.11403 12.4578 6.54048Z"
        fill="currentColor" />
</svg>
    