<svg width="45" height="45" viewBox="0 0 45 45" fill="none" xmlns="http://www.w3.org/2000/svg">
<g clip-path="url(#clip0_10026_64555)">
<circle cx="22.5" cy="22.5" r="22.5" fill="#EDEDEB"/>
<circle cx="22.5" cy="22.5" r="22" fill="white" stroke="#97A2B2"/>
<path d="M3.80078 35.0184C5.94264 32.1559 8.69987 29.7996 11.8706 28.1559C13.3428 27.3927 15.0783 27.7004 16.5883 28.3858C18.3903 29.2036 20.3917 29.6591 22.4995 29.6591C24.6073 29.6591 26.6087 29.2036 28.4107 28.3858C29.9207 27.7004 31.6562 27.3927 33.1284 28.1559C36.2992 29.7997 39.0564 32.1559 41.1983 35.0185C37.1603 41.0381 30.2926 45 22.4996 45C14.7065 45 7.83875 41.038 3.80078 35.0184Z" fill="#97A2B2"/>
<circle cx="22.5004" cy="15.3408" r="9.20455" fill="#97A2B2"/>
</g>
<defs>
<clipPath id="clip0_10026_64555">
<rect width="45" height="45" fill="white"/>
</clipPath>
</defs>
</svg>

