<svg width="16" height="16" viewBox="0 0 16 16" fill="none" xmlns="http://www.w3.org/2000/svg">
    <g clip-path="url(#clip0_358_24095)">
        <path fill-rule="evenodd" clip-rule="evenodd"
            d="M4 0.8H12C13.7673 0.8 15.2 2.23269 15.2 4V12C15.2 13.7673 13.7673 15.2 12 15.2H4C2.23269 15.2 0.8 13.7673 0.8 12V4C0.8 2.23269 2.23269 0.8 4 0.8ZM0 4C0 1.79086 1.79086 0 4 0H12C14.2091 0 16 1.79086 16 4V12C16 14.2091 14.2091 16 12 16H4C1.79086 16 0 14.2091 0 12V4ZM3.2 7.55005C2.95147 7.55005 2.75 7.75152 2.75 8.00005C2.75 8.24858 2.95147 8.45005 3.2 8.45005H12.8C13.0485 8.45005 13.25 8.24858 13.25 8.00005C13.25 7.75152 13.0485 7.55005 12.8 7.55005H3.2Z"
            fill="currentColor" />
    </g>
    <defs>
        <clipPath id="clip0_358_24095">
            <rect width="16" height="16" fill="currentColor" />
        </clipPath>
    </defs>
</svg>
    