<svg xmlns="http://www.w3.org/2000/svg" width="20" height="20" viewBox="0 0 20 20" fill="none">
  <path fill-rule="evenodd" clip-rule="evenodd" d="M16 14.2516V3.90225C15.9994 3.39794 15.7904 2.91445 15.4189 2.55783C15.0473 2.20122 14.5435 2.0006 14.018 2H4.98203C4.45652 2.0006 3.95271 2.20122 3.58114 2.55783C3.20957 2.91445 3.00057 3.39794 3 3.90225V14.2516H16ZM16 14.9231H3V16.0978C3.00057 16.6021 3.20957 17.0856 3.58114 17.4422C3.95271 17.7988 4.45652 17.9994 4.98203 18H14.018C14.5435 17.9994 15.0473 17.7988 15.4189 17.4422C15.7904 17.0856 15.9994 16.6021 16 16.0978V14.9231ZM8.91431 16.6753C8.8716 16.5722 8.84961 16.4616 8.84961 16.35C8.84961 16.1246 8.93916 15.9084 9.09857 15.749C9.25797 15.5896 9.47417 15.5 9.69961 15.5C9.92504 15.5 10.1412 15.5896 10.3006 15.749C10.4601 15.9084 10.5496 16.1246 10.5496 16.35C10.5496 16.4616 10.5276 16.5722 10.4849 16.6753C10.4422 16.7784 10.3796 16.8721 10.3006 16.951C10.2217 17.03 10.128 17.0926 10.0249 17.1353C9.92176 17.178 9.81123 17.2 9.69961 17.2C9.58799 17.2 9.47745 17.178 9.37433 17.1353C9.2712 17.0926 9.1775 17.03 9.09857 16.951C9.01964 16.8721 8.95703 16.7784 8.91431 16.6753Z" fill="#97A2B2"/>
</svg>
