<svg xmlns="http://www.w3.org/2000/svg" width="20" height="20" viewBox="0 0 20 20" fill="none">
  <path fill-rule="evenodd" clip-rule="evenodd" d="M8.67627 14.9185H8.67721C8.92563 14.9185 9.18624 14.9367 9.36717 15.1422C9.55466 15.3574 9.55278 15.661 9.55091 15.8826V15.9571C9.54997 16.1073 9.5481 16.2575 9.53216 16.4045C9.48716 16.8072 9.23312 17.0575 8.87032 17.0575L7.03387 17.0617C6.64764 17.0617 6.26048 17.0596 5.87425 17.0511C4.30497 17.0181 3.01786 15.5321 3.00473 13.7383C2.99883 12.9734 2.99976 12.2101 3.00068 11.4463C3.00079 11.3614 3.00089 11.2764 3.00098 11.1914L3.00286 10.0101L3.00192 8.88418C3.00098 8.03947 3.00005 7.19264 3.0038 6.34687C3.0113 4.77782 3.99749 3.40158 5.34835 3.07456C5.53677 3.02876 5.7252 3.00533 5.90894 3.00426C6.50703 3 7.10605 3 7.70508 3H8.82345C9.27624 3.00107 9.5331 3.28867 9.54435 3.80955C9.54997 4.01833 9.55372 4.20581 9.5406 4.39009C9.50591 4.88434 9.26499 5.13573 8.82439 5.13573L8.20849 5.1368L7.10137 5.13573L6.09361 5.1368C5.32303 5.1368 4.8815 5.63744 4.8815 6.50984V13.5434C4.8815 14.4179 5.32303 14.9196 6.09174 14.9196L7.61321 14.9207L8.67627 14.9185ZM12.8047 3.68908L17.671 9.22175C18.1078 9.71813 18.1097 10.3328 17.6766 10.8238C16.0548 12.6687 14.433 14.5126 12.8094 16.3554C12.5966 16.5961 12.3378 16.7293 12.081 16.7293C11.8213 16.7293 11.5822 16.5951 11.4079 16.3511C11.2654 16.153 11.1735 15.8643 11.1698 15.5991C11.1576 14.9219 11.1595 14.2458 11.1613 13.5676L11.1613 13.5667L11.1623 13.0831L7.46405 13.082C6.90721 13.0756 6.50224 12.6165 6.50036 11.9891C6.49849 10.6853 6.49849 9.38153 6.50036 8.07665C6.50224 7.42901 6.90252 6.9763 7.47624 6.97417L10.2098 6.9731H11.1623V4.47414C11.1632 3.95645 11.3826 3.56659 11.766 3.40254C12.14 3.24383 12.5019 3.34609 12.8047 3.68908Z" fill="#97A2B2"/>
</svg>