<svg viewBox="0 0 20 20" fill="none" xmlns="http://www.w3.org/2000/svg" id="icon-login-support">
    <g opacity="1.0">
        <path
            d="M15.7294 8.33341C16.255 8.63606 16.6811 9.08511 16.9559 9.62579C17.2306 10.1665 17.3421 10.7754 17.2768 11.3784C17.2114 11.9813 16.972 12.5522 16.5877 13.0214C16.2034 13.4907 15.691 13.8379 15.1127 14.0209C14.9084 14.9483 14.3934 15.7781 13.6531 16.373C12.9128 16.9678 11.9916 17.2919 11.0419 17.2917H9.47939C9.34126 17.2917 9.20878 17.2369 9.11111 17.1392C9.01343 17.0415 8.95856 16.909 8.95856 16.7709C8.95856 16.6328 9.01343 16.5003 9.11111 16.4026C9.20878 16.305 9.34126 16.2501 9.47939 16.2501H11.0419C11.6884 16.2503 12.319 16.05 12.847 15.6769C13.3749 15.3038 13.7742 14.7762 13.9898 14.1667H13.6461C13.5079 14.1667 13.3754 14.1119 13.2778 14.0142C13.1801 13.9165 13.1252 13.784 13.1252 13.6459V8.43758C13.1252 8.29945 13.1801 8.16697 13.2778 8.0693C13.3754 7.97162 13.5079 7.91675 13.6461 7.91675H14.1669C14.3356 7.91675 14.5013 7.93029 14.6638 7.95633C14.5465 6.80101 14.0046 5.73034 13.143 4.95177C12.2814 4.1732 11.1615 3.74216 10.0002 3.74216C8.83897 3.74216 7.71905 4.1732 6.85746 4.95177C5.99587 5.73034 5.45394 6.80101 5.33668 7.95633C5.501 7.93 5.66715 7.91676 5.83356 7.91675H6.35439C6.49253 7.91675 6.625 7.97162 6.72268 8.0693C6.82035 8.16697 6.87523 8.29945 6.87523 8.43758V13.6459C6.87523 13.784 6.82035 13.9165 6.72268 14.0142C6.625 14.1119 6.49253 14.1667 6.35439 14.1667H5.83356C5.145 14.1675 4.47546 13.9408 3.92897 13.522C3.38249 13.1031 2.98965 12.5154 2.81149 11.8503C2.63334 11.1852 2.67984 10.4799 2.94378 9.84388C3.20771 9.20792 3.67431 8.67693 4.27106 8.33341C4.27106 6.81395 4.87467 5.35671 5.94909 4.28228C7.02352 3.20785 8.48076 2.60425 10.0002 2.60425C11.5197 2.60425 12.9769 3.20785 14.0514 4.28228C15.1258 5.35671 15.7294 6.81395 15.7294 8.33341ZM5.83356 8.95841C5.28102 8.95841 4.75112 9.17791 4.36042 9.56861C3.96972 9.95931 3.75023 10.4892 3.75023 11.0417C3.75023 11.5943 3.96972 12.1242 4.36042 12.5149C4.75112 12.9056 5.28102 13.1251 5.83356 13.1251V8.95841ZM16.2502 11.0417C16.2502 10.4892 16.0307 9.95931 15.64 9.56861C15.2493 9.17791 14.7194 8.95841 14.1669 8.95841V13.1251C14.7194 13.1251 15.2493 12.9056 15.64 12.5149C16.0307 12.1242 16.2502 11.5943 16.2502 11.0417Z"
            fill="currentColor" />
    </g>
</svg>
    