<svg viewBox="0 0 16 16" fill="none" xmlns="http://www.w3.org/2000/svg">
    <path
        d="M9.32461 13.0751C8.24961 13.3751 7.14961 13.3001 6.12461 12.9251C5.99961 12.8751 5.84961 12.8251 5.72461 12.7501L5.57461 12.6751L5.27461 12.5251C5.22461 12.5001 5.14961 12.4501 5.09961 12.4251C4.99961 12.3751 4.92461 12.3001 4.82461 12.2501C4.77461 12.2251 4.74961 12.1751 4.69961 12.1501C4.59961 12.0751 4.49961 12.0001 4.42461 11.9001L4.37461 11.8501C4.27461 11.7501 4.17461 11.6501 4.07461 11.5251L4.04961 11.5001C3.72461 11.1251 3.44961 10.7001 3.24961 10.2501V10.2251C3.17461 10.0751 3.12461 9.95014 3.07461 9.80014C3.07461 9.77514 3.04961 9.72513 3.04961 9.70014C2.69961 8.60014 2.67461 7.37514 3.09961 6.22514L4.22461 6.65014C4.24961 6.65014 4.29961 6.65014 4.32461 6.62514C4.34961 6.60014 4.34961 6.57514 4.34961 6.55014L3.49961 2.92514C3.49961 2.90014 3.47461 2.87514 3.44961 2.85014H3.37461L0.399613 5.07514C0.374613 5.10014 0.349613 5.12514 0.374613 5.15014C0.374613 5.17514 0.399613 5.20014 0.424613 5.22514L1.54961 5.65014C1.04961 7.02514 0.999613 8.45014 1.34961 9.77514V9.82514C1.37461 9.95014 1.42461 10.1001 1.47461 10.2251C1.49961 10.2751 1.49961 10.3251 1.52461 10.3751C1.59961 10.5501 1.67461 10.7501 1.74961 10.9251C1.74961 10.9501 1.77461 10.9501 1.77461 10.9751C2.04961 11.5751 2.39961 12.1251 2.82461 12.6001C2.82461 12.6251 2.84961 12.6251 2.84961 12.6501C2.97461 12.8001 3.09961 12.9251 3.22461 13.0501L3.32461 13.1501C3.44961 13.2501 3.54961 13.3501 3.67461 13.4501C3.72461 13.5001 3.79961 13.5501 3.84961 13.6001C3.94961 13.6751 4.07461 13.7501 4.19961 13.8251L4.42461 13.9751C4.44961 14.0001 4.47461 14.0251 4.52461 14.0251C4.62461 14.1001 4.74961 14.1501 4.87461 14.2001C4.92461 14.2251 4.94961 14.2501 4.99961 14.2751C5.19961 14.3751 5.42461 14.4751 5.62461 14.5501C6.92461 15.0251 8.37461 15.0751 9.74961 14.7001C10.1996 14.5751 10.4496 14.1251 10.3246 13.6751C10.2246 13.2251 9.77461 12.9501 9.32461 13.0751ZM14.4496 10.3501C14.9496 8.97514 14.9996 7.55014 14.6496 6.25014V6.17514C14.5996 6.02514 14.5496 5.85014 14.4996 5.70014C14.4996 5.67514 14.4996 5.65014 14.4746 5.65014C14.1246 4.60014 13.5246 3.70014 12.7246 2.95014L12.6496 2.87514C12.5246 2.75014 12.3996 2.65014 12.2496 2.55014C12.1996 2.50014 12.1496 2.47514 12.0996 2.42514C11.9746 2.32514 11.8496 2.25014 11.7246 2.17514C11.6496 2.12514 11.5996 2.07514 11.5246 2.05014C11.5246 2.02514 11.4996 2.00014 11.4496 1.97514L11.1496 1.82514C11.0746 1.80014 11.0246 1.75014 10.9496 1.72514C10.7746 1.65014 10.6246 1.57514 10.4496 1.52514C10.4246 1.52514 10.3996 1.50014 10.3496 1.47514H10.3246C9.04961 1.00014 7.62461 0.925135 6.24961 1.30014C5.79961 1.42514 5.54961 1.87514 5.64961 2.32514C5.77461 2.77514 6.22461 3.02514 6.64961 2.90014C7.72461 2.60014 8.79961 2.67514 9.82461 3.05014C9.97461 3.10014 10.0996 3.17514 10.2496 3.22514C10.2996 3.25014 10.3246 3.27514 10.3746 3.30014C10.4746 3.35014 10.5996 3.42514 10.6996 3.47514C10.7496 3.50014 10.7996 3.52514 10.8246 3.57514C10.9246 3.65014 11.0246 3.70014 11.1246 3.77514C11.1496 3.80014 11.1746 3.82514 11.2246 3.85014C11.3246 3.92514 11.4496 4.02514 11.5496 4.12514L11.5746 4.15014C12.1746 4.72514 12.6496 5.45014 12.8996 6.22514V6.25014C13.2746 7.35014 13.2996 8.60014 12.8746 9.80014L11.7496 9.37514C11.7246 9.37514 11.6746 9.37514 11.6496 9.40014C11.6246 9.42513 11.6246 9.45014 11.6246 9.47514L12.4996 13.0751C12.4996 13.1001 12.5246 13.1251 12.5496 13.1251H12.6246L15.5996 10.9251C15.6246 10.9001 15.6496 10.8751 15.6246 10.8501C15.6246 10.8251 15.5996 10.8001 15.5746 10.7751L14.4496 10.3501Z"
        fill="currentColor" />
    <path
        d="M8 4.8252C6.275 4.8252 4.875 6.2252 4.875 7.9502C4.875 9.6752 6.275 11.0752 8 11.0752C9.725 11.0752 11.125 9.6752 11.125 7.9502C11.125 6.2252 9.725 4.8252 8 4.8252ZM9.475 8.3252L8.4 9.4002C8.3 9.5002 8.15 9.5502 8.025 9.5502C7.9 9.5502 7.75 9.5002 7.65 9.4002L6.575 8.3252C6.375 8.1252 6.375 7.7752 6.575 7.5502L7.65 6.4752C7.85 6.2752 8.2 6.2752 8.425 6.4752L9.5 7.5502C9.675 7.7752 9.675 8.1002 9.475 8.3252Z"
        fill="currentColor" />
</svg>
    