<svg  viewBox="0 0 32 32" fill="none" xmlns="http://www.w3.org/2000/svg">
<g id="icon_opinion_xx">
<g id="Vector">
<path d="M20.9839 12.2206L15.9852 18.3198L11.0039 12.2029H8.46985V13.1929C8.62447 13.1717 8.78184 13.1934 8.9254 13.2556C9.06895 13.3178 9.19339 13.4183 9.2856 13.5465V13.6526C10.3791 15.0846 14.6835 20.0699 15.8984 21.608C17.1134 20.0523 21.4005 15.0669 22.5113 13.6172C22.6035 13.489 22.7279 13.3885 22.8715 13.3263C23.015 13.2641 23.1724 13.2424 23.327 13.2636V12.1322H21.1401C21.1401 12.1322 21.036 12.1322 20.9839 12.2206ZM28.3084 10.7002C28.755 11.2393 29 11.9219 29 12.6272C29 13.3326 28.755 14.0152 28.3084 14.5542L22.3551 21.166L17.9465 26.01C17.7246 26.3136 17.4369 26.561 17.1057 26.7327C16.7745 26.9044 16.4089 26.9959 16.0373 27C15.6659 26.9946 15.3008 26.9025 14.9698 26.7309C14.6388 26.5593 14.3509 26.3126 14.1281 26.01L9.82365 21.3251L3.6968 14.5719C3.24742 14.0445 3 13.3697 3 12.6714C3 11.9731 3.24742 11.2983 3.6968 10.7709L6.52591 7.5711L8.86905 4.97233C9.09987 4.67117 9.39471 4.42723 9.7314 4.25882C10.0681 4.09041 10.4379 4.00192 10.813 4H21.2269C21.5877 4.01598 21.9411 4.10926 22.2641 4.27376C22.5871 4.43825 22.8724 4.67026 23.1014 4.95465C24.0734 5.94466 26.1735 8.3136 27.4405 9.71022L28.3084 10.7002Z" fill="black"/>
<path d="M20.9839 12.2206L15.9852 18.3198L11.0039 12.2029H8.46985V13.1929C8.62447 13.1717 8.78184 13.1934 8.9254 13.2556C9.06895 13.3178 9.19339 13.4183 9.2856 13.5465V13.6526C10.3791 15.0846 14.6835 20.0699 15.8984 21.608C17.1134 20.0523 21.4005 15.0669 22.5113 13.6172C22.6035 13.489 22.7279 13.3885 22.8715 13.3263C23.015 13.2641 23.1724 13.2424 23.327 13.2636V12.1322H21.1401C21.1401 12.1322 21.036 12.1322 20.9839 12.2206ZM28.3084 10.7002C28.755 11.2393 29 11.9219 29 12.6272C29 13.3326 28.755 14.0152 28.3084 14.5542L22.3551 21.166L17.9465 26.01C17.7246 26.3136 17.4369 26.561 17.1057 26.7327C16.7745 26.9044 16.4089 26.9959 16.0373 27C15.6659 26.9946 15.3008 26.9025 14.9698 26.7309C14.6388 26.5593 14.3509 26.3126 14.1281 26.01L9.82365 21.3251L3.6968 14.5719C3.24742 14.0445 3 13.3697 3 12.6714C3 11.9731 3.24742 11.2983 3.6968 10.7709L6.52591 7.5711L8.86905 4.97233C9.09987 4.67117 9.39471 4.42723 9.7314 4.25882C10.0681 4.09041 10.4379 4.00192 10.813 4H21.2269C21.5877 4.01598 21.9411 4.10926 22.2641 4.27376C22.5871 4.43825 22.8724 4.67026 23.1014 4.95465C24.0734 5.94466 26.1735 8.3136 27.4405 9.71022L28.3084 10.7002Z" fill="url(#paint0_linear_358_24756)"/>
</g>
</g>
<defs>
<linearGradient id="paint0_linear_358_24756" x1="2.45833" y1="3.47727" x2="25.39" y2="28.86" gradientUnits="userSpaceOnUse">
<stop stop-color="#B0D6FF"/>
<stop offset="1" stop-color="#5E9BE3"/>
</linearGradient>
</defs>
</svg>
