<svg  viewBox="0 0 24 24" fill="none" xmlns="http://www.w3.org/2000/svg">
<path d="M16.2719 6.72633L12 10.9982L7.72815 6.72633C7.53391 6.53208 7.21898 6.53211 7.02473 6.72635C6.83051 6.92057 6.83051 7.2355 7.02473 7.42975L10.7992 11.2042H8.25311C7.9784 11.2042 7.75573 11.4269 7.75573 11.7016C7.75573 11.9762 7.97842 12.199 8.25311 12.199H11.5109V14.2879H8.52669C8.25198 14.2879 8.02932 14.5107 8.02932 14.7853C8.02932 15.06 8.252 15.2827 8.52669 15.2827H11.511V18.3664C11.511 18.6411 11.7337 18.8638 12.0083 18.8638C12.283 18.8638 12.5057 18.6411 12.5057 18.3664V15.2827H15.49C15.7646 15.2827 15.9873 15.06 15.9873 14.7853C15.9873 14.5107 15.7646 14.2879 15.49 14.2879H12.5057V12.199H15.7635C16.0382 12.199 16.2609 11.9762 16.2609 11.7016C16.2609 11.4269 16.0382 11.2042 15.7635 11.2042H13.2008L16.9753 7.42975C17.1695 7.2355 17.1695 6.92057 16.9753 6.72633C16.781 6.53208 16.4662 6.53208 16.2719 6.72633ZM12 1.53027C6.22699 1.53027 1.53027 6.22698 1.53027 12C1.53027 17.7731 6.22699 22.4698 12 22.4698C17.7731 22.4698 22.4698 17.7731 22.4698 12C22.4698 6.22698 17.7731 1.53027 12 1.53027ZM12 21.475C6.77549 21.475 2.52502 17.2246 2.52502 12C2.52502 6.77547 6.77549 2.52505 12 2.52505C17.2246 2.52505 21.4751 6.77549 21.4751 12C21.4751 17.2246 17.2246 21.475 12 21.475Z" fill="currentColor" stroke="currentColor" stroke-width="0.5"/>
</svg>
