<svg xmlns="http://www.w3.org/2000/svg" width="24" height="24" viewBox="0 0 24 24" fill="none">
  <path fill-rule="evenodd" clip-rule="evenodd" d="M4.87443 12.2378H7.5021C7.96528 12.2371 8.41021 12.4183 8.74119 12.7423C8.90336 12.9009 9.03228 13.0903 9.12041 13.2993C9.20854 13.5084 9.25411 13.7329 9.25446 13.9598V18.2645C9.25406 18.4914 9.20846 18.716 9.12034 18.9251C9.03222 19.1343 8.90333 19.3238 8.74119 19.4826C8.40998 19.8062 7.96515 19.9871 7.5021 19.9865H4.87443C4.41138 19.9871 3.96655 19.8062 3.63534 19.4826C3.4732 19.3238 3.34432 19.1343 3.25619 18.9251C3.16807 18.716 3.12247 18.4914 3.12207 18.2645V12.2378C3.12207 9.91438 4.04504 7.68617 5.68792 6.04328C7.3308 4.4004 9.55903 3.47742 11.8824 3.47742C14.2058 3.47742 16.434 4.4004 18.0769 6.04328C19.7198 7.68617 20.6428 9.91438 20.6428 12.2378V18.2645C20.6424 18.4914 20.5968 18.7159 20.5088 18.925C20.4208 19.1342 20.2921 19.3237 20.1301 19.4826C19.7988 19.806 19.354 19.9869 18.891 19.9865H16.2633C15.8003 19.9871 15.3554 19.8062 15.0242 19.4826C14.8621 19.3238 14.7332 19.1343 14.6451 18.9251C14.557 18.716 14.5114 18.4914 14.511 18.2645V13.9598C14.5113 13.7329 14.5569 13.5084 14.645 13.2993C14.7331 13.0903 14.8621 12.9009 15.0242 12.7423C15.3552 12.4183 15.8002 12.2372 16.2633 12.2378H18.8945C18.8945 10.3794 18.1562 8.59707 16.8422 7.28298C15.5281 5.9689 13.7458 5.23066 11.8874 5.23066C10.029 5.23066 8.24669 5.9689 6.93261 7.28298C5.61852 8.59707 4.88027 10.3794 4.88027 12.2378H4.87443Z" fill="#E7AE38"/>
</svg>