<svg viewBox="0 0 28 28" fill="none" xmlns="http://www.w3.org/2000/svg" id="icon-home-maintain">
    <g clip-path="url(#clip0_385_52342)">
        <path
            d="M26.4509 11.8813H23.6509C23.1562 11.8813 22.6149 11.4987 22.4655 11.0227L22.0829 10.1173C21.8589 9.67867 21.9522 9.02533 22.3069 8.67067L24.3042 6.67333C24.6589 6.328 24.6589 5.74933 24.3042 5.39467L22.5122 3.60267C22.1575 3.248 21.5882 3.248 21.2335 3.60267L19.2269 5.628C18.8722 5.98267 18.2282 6.08533 17.7802 5.86133L16.8935 5.49733C16.4175 5.348 16.0349 4.816 16.0349 4.312V1.46533C16.0349 0.970668 15.6242 0.560001 15.1295 0.560001H12.6002C12.1055 0.560001 11.6949 0.970668 11.6949 1.46533V4.312C11.6949 4.80667 11.3122 5.33867 10.8362 5.49733L9.94954 5.86133C9.50154 6.08533 8.85754 5.98267 8.50287 5.628L6.50554 3.62133C6.1602 3.276 5.58154 3.276 5.22687 3.62133L3.43487 5.41333C3.0802 5.768 3.0802 6.33733 3.43487 6.692L5.4322 8.68C5.78687 9.03467 5.8802 9.67867 5.6562 10.1267L5.27354 11.032C5.11487 11.4987 4.58287 11.8907 4.0882 11.8907H1.27887C0.784202 11.8907 0.373535 12.292 0.373535 12.7867V15.316C0.373535 15.8107 0.784202 16.2213 1.27887 16.2213H4.05087C4.54554 16.2213 5.07754 16.604 5.22687 17.08L5.60954 18.0227C5.83354 18.4707 5.73087 19.1147 5.3762 19.4693L3.42554 21.42C3.0802 21.7747 3.0802 22.344 3.42554 22.6987L5.22687 24.4813C5.58154 24.836 6.15087 24.836 6.50554 24.4813L8.43754 22.5493C8.78287 22.204 9.4362 22.1013 9.8842 22.3253L10.8455 22.7267C11.3215 22.876 11.7042 23.4173 11.7042 23.912V26.6467C11.7042 27.1413 12.1149 27.552 12.6095 27.552H15.1389C15.6335 27.552 16.0442 27.1413 16.0442 26.6467V23.9213C16.0442 23.4267 16.4269 22.8947 16.9029 22.736L17.6029 22.4467L16.2402 21.084C15.4935 21.336 14.6909 21.476 13.8789 21.476C11.9189 21.476 10.0709 20.7107 8.6802 19.32C7.2802 17.92 6.51487 16.0813 6.51487 14.1213C6.51487 12.1613 7.2802 10.3133 8.67087 8.92267C10.0615 7.532 11.9002 6.76667 13.8695 6.76667C15.8295 6.76667 17.6775 7.532 19.0589 8.92267C20.4495 10.3133 21.2149 12.152 21.2149 14.1213C21.2149 14.924 21.0842 15.6987 20.8415 16.436L22.2042 17.7987L22.4935 17.08C22.6429 16.604 23.1749 16.2213 23.6695 16.2213H26.4415C26.9362 16.2213 27.3469 15.8107 27.3469 15.316V12.7867C27.3562 12.292 26.9455 11.8813 26.4509 11.8813ZM19.4042 17.0147C19.1149 16.7347 18.9842 16.5013 19.1429 16.044C19.9922 13.6453 19.2175 11.1907 17.1269 9.72533C15.8109 8.80133 14.3455 8.54 12.7215 9.02533C13.3282 9.73467 14.0095 10.332 14.6535 10.9667C15.9042 12.2173 15.9229 13.7573 14.7282 14.9333C13.5709 16.0813 12.0029 16.0347 10.7895 14.8213C10.1549 14.1867 9.5482 13.524 8.9322 12.8707C8.85754 12.9173 8.78287 12.9547 8.7082 13.0013C8.35354 14.952 8.7922 16.7067 10.2669 18.1067C11.8349 19.6 13.7015 20.02 15.7549 19.3293C16.2775 19.152 16.5575 19.2453 16.9122 19.6093C18.4429 21.1587 21.2149 23.8 22.7735 25.3213C23.5295 26.0587 24.4535 26.0867 25.2002 25.4427C26.1242 24.64 26.1709 23.5853 25.2842 22.6987C23.7442 21.168 20.9629 18.536 19.4042 17.0147ZM23.9029 24.7987C23.4269 24.7987 23.0442 24.416 23.0442 23.94C23.0442 23.464 23.4269 23.0813 23.9029 23.0813C24.3789 23.0813 24.7615 23.464 24.7615 23.94C24.7615 24.416 24.3789 24.7987 23.9029 24.7987Z"
            fill="currentColor" />
    </g>
    <defs>
        <clipPath id="clip0_385_52342">
            <rect width="28" height="28" fill="currentColor" />
        </clipPath>
    </defs>
</svg>
    