<svg xmlns="http://www.w3.org/2000/svg"  viewBox="0 0 14 14" fill="none">
  <g clip-path="url(#clip0_10026_64692)">
    <path d="M3.2046 11.7075L5.88358 10.163L7.15744 11.4821C8.26762 11.4524 9.32647 11.0082 10.1256 10.2369C11.5984 8.8146 11.9273 6.59102 11.0256 4.85942C10.8777 4.57679 10.9485 4.22901 11.1783 4.00706C11.5274 3.66997 12.1175 3.74338 12.3429 4.17323C13.5481 6.47925 13.1319 9.41896 11.1676 11.3159C8.98965 13.4192 5.52433 13.519 3.2046 11.7075ZM2.83151 2.68403C5.00891 0.581255 8.47477 0.480966 10.7945 2.29245L8.11551 3.83698L6.84166 2.51791C5.73148 2.5476 4.67263 2.99178 3.87352 3.76302C2.4007 5.18536 2.0718 7.40894 2.97408 9.14002C3.04337 9.27983 3.06587 9.43821 3.03826 9.59178C3.01066 9.74535 2.93441 9.88598 2.82077 9.9929C2.47172 10.33 1.88159 10.2566 1.65624 9.82674C0.451035 7.52072 0.86721 4.58101 2.83151 2.68403Z" fill="#F0B90B"/>
  </g>
  <defs>
    <clipPath id="clip0_10026_64692">
      <rect width="14" height="14" fill="white"/>
    </clipPath>
  </defs>
</svg>
