<svg  viewBox="0 0 48 48" fill="none" xmlns="http://www.w3.org/2000/svg">
<path d="M39.204 12.0804H37.8714C38.5471 10.9347 38.8437 9.84191 38.7489 8.82826C38.6703 7.97991 38.2683 6.76657 36.7949 5.79959C35.5734 4.99599 34.0025 4.79889 32.2597 5.23429C29.4335 5.94388 26.0886 8.38336 23.8893 11.3315C21.6887 8.38341 18.3466 5.94388 15.5204 5.23429C13.7762 4.79606 12.2039 4.99455 10.9825 5.79959C9.51047 6.76657 9.10831 7.97991 9.02974 8.82826C8.935 9.84191 9.2288 10.9347 9.90725 12.0804H8.57472C6.55706 12.0804 4.91504 13.7237 4.91504 15.7429V20.4602C4.91504 22.0574 5.96855 23.4691 7.49276 23.9432C7.3479 24.344 7.27206 24.7584 7.27206 25.1782V39.3309C7.27206 41.3487 8.91596 42.9926 10.9338 42.9926H36.8491C38.8668 42.9926 40.5081 41.3487 40.5081 39.3309V25.1782C40.5081 24.7556 40.435 24.3399 40.2901 23.9418C41.8121 23.4651 42.8631 22.0534 42.8631 20.4601V15.7441C42.863 13.725 41.2217 12.0804 39.204 12.0804ZM36.849 40.3844H25.1921V24.1233H36.8491C37.43 24.1233 37.9012 24.5972 37.9012 25.1782V39.3308C37.9011 39.9119 37.43 40.3844 36.849 40.3844ZM26.6276 12.0804C28.4815 9.94201 30.9149 8.26157 32.8907 7.76587C33.9171 7.50862 34.7567 7.57904 35.3648 7.9799C36.0108 8.40437 36.1257 8.78283 36.1516 9.06867C36.2544 10.1168 35.1305 11.5298 34.5997 12.0804H26.6276ZM40.2548 15.7441V20.4602C40.2548 21.0412 39.7849 21.5136 39.204 21.5136H25.1921V14.6899H39.204C39.7849 14.6899 40.2548 15.1632 40.2548 15.7441ZM22.5853 24.1233V40.3844H10.9338C10.3514 40.3844 9.88011 39.9118 9.88011 39.3308V25.1782C9.88011 24.5972 10.3514 24.1233 10.9338 24.1233H22.5853ZM11.6271 9.06867C11.6528 8.78283 11.7693 8.40432 12.4126 7.9799C13.0165 7.57904 13.8561 7.50517 14.8881 7.76587C16.8529 8.25879 19.2837 9.93938 21.1417 12.0804H13.1763C12.701 11.599 11.5228 10.1419 11.6271 9.06867ZM7.52116 15.7441C7.52116 15.1633 7.99244 14.6899 8.57467 14.6899H22.5852V21.5136H8.57467C7.99244 21.5136 7.52116 21.0412 7.52116 20.4602V15.7441Z" fill="#FDDBA2"/>
</svg>
