<svg viewBox="0 0 20 20" fill="none" xmlns="http://www.w3.org/2000/svg" id="icon-login-user">
    <g opacity="1.0">
        <path fill-rule="evenodd" clip-rule="evenodd"
            d="M8.08622 12.1453C5.07325 12.1453 2.5 12.5952 2.5 14.3978C2.5 16.2005 5.05757 16.6667 8.08622 16.6667C11.1 16.6667 13.6724 16.216 13.6724 14.4141C13.6724 12.6122 11.1156 12.1453 8.08622 12.1453Z"
            stroke="currentColor" stroke-width="1.2" stroke-linecap="round" stroke-linejoin="round" />
        <path fill-rule="evenodd" clip-rule="evenodd"
            d="M8.04739 9.58333C10.0037 9.58333 11.5894 7.9978 11.5894 6.04167C11.5894 4.08553 10.0037 2.5 8.04739 2.5C6.09183 2.5 4.50613 4.08553 4.50613 6.04167C4.49915 7.99082 6.07322 9.57636 8.02336 9.58333H8.04739Z"
            stroke="currentColor" stroke-width="1.2" stroke-linecap="round" stroke-linejoin="round" />
        <path fill-rule="evenodd" clip-rule="evenodd"
            d="M15.9977 7.08242C15.9977 6.75105 15.729 6.48242 15.3977 6.48242C15.0663 6.48242 14.7977 6.75105 14.7977 7.08242V8.03659H13.7948C13.4635 8.03659 13.1948 8.30522 13.1948 8.63659C13.1948 8.96796 13.4635 9.23659 13.7948 9.23659H14.7977V10.1875C14.7977 10.5189 15.0663 10.7875 15.3977 10.7875C15.729 10.7875 15.9977 10.5189 15.9977 10.1875V9.23659H17.0006C17.332 9.23659 17.6006 8.96796 17.6006 8.63659C17.6006 8.30522 17.332 8.03659 17.0006 8.03659H15.9977V7.08242Z"
            fill="currentColor" />
    </g>
</svg>
    