<svg  viewBox="0 0 32 32" fill="none" xmlns="http://www.w3.org/2000/svg">
<g id="icon_opinion_wl">
<path id="Vector" d="M27.7667 4.34134C27.0613 2.32081 22.554 2.52447 18.1111 5.35161C18.1111 5.35161 13.6682 5.11043 10.6391 6.15822C7.60993 7.20601 5.69784 10.6817 5.24151 14.4387C5.24151 14.4387 9.18608 9.30962 14.1693 7.16849C14.1693 7.16849 14.6676 7.61333 13.9621 7.9751C13.2566 8.33954 8.56458 11.3275 5.86581 17.2658C3.16704 23.2042 3.66256 25.2247 5.65864 26.5565C8.20064 28.2528 13.755 24.536 13.755 24.536C13.755 24.536 24.0517 25.908 26.6245 17.6705H19.3569C19.3569 17.6705 19.1497 19.892 16.0366 19.892C12.9235 19.892 12.6743 16.9442 12.7163 16.2555H26.8317C26.8317 16.2555 27.246 7.49006 18.9425 5.75358C18.9425 5.75358 21.143 3.73304 24.9616 3.73304C26.6217 3.73304 27.8087 4.7835 27.3524 8.17608C27.3524 8.17876 28.4722 6.36188 27.7667 4.34134ZM13.1279 24.335C13.1279 24.335 9.66201 26.8245 6.89885 25.7499C4.56402 24.8415 6.32774 20.9532 6.69168 20.2966C6.69168 20.2966 8.04107 23.0219 13.1279 24.335ZM19.3569 13.4284H12.5064C12.5064 13.4284 12.3832 9.99563 16.2438 9.99563C20.1044 9.99563 19.3569 13.4284 19.3569 13.4284Z" fill="url(#paint0_linear_358_24759)"/>
</g>
<defs>
<linearGradient id="paint0_linear_358_24759" x1="25.5" y1="22.4286" x2="3.31947" y2="5.9318" gradientUnits="userSpaceOnUse">
<stop stop-color="#329DEA"/>
<stop offset="1" stop-color="#90D0FE"/>
</linearGradient>
</defs>
</svg>
