<svg viewBox="0 0 25 22" fill="none" xmlns="http://www.w3.org/2000/svg">
<g clip-path="url(#clip0_366_48144)">
<path d="M3.51324 22C2.58184 21.9991 1.68884 21.6309 1.03018 20.9761C0.371532 20.3213 0.00103677 19.4335 0 18.5074V3.4932C0.0010365 2.56706 0.371513 1.67915 1.03015 1.02427C1.68878 0.369394 2.58179 0.00103059 3.51324 0L21.4888 0C22.4202 0.00103058 23.3132 0.369394 23.9719 1.02427C24.6305 1.67915 25.001 2.56706 25.002 3.4932V18.5074C25.001 19.4335 24.6305 20.3213 23.9718 20.9761C23.3132 21.6309 22.4202 21.9991 21.4888 22H3.51324ZM1.53627 18.5068C1.53699 19.028 1.74554 19.5276 2.11619 19.8962C2.48684 20.2647 2.98935 20.4721 3.51354 20.4728H21.4888C22.0129 20.472 22.5154 20.2646 22.8859 19.8961C23.2565 19.5275 23.465 19.0279 23.4658 18.5068V3.4932C23.4651 2.97195 23.2566 2.47223 22.8859 2.10363C22.5153 1.73502 22.0127 1.52762 21.4885 1.52691H3.51324C2.98905 1.5277 2.48657 1.73514 2.11598 2.10373C1.74538 2.47233 1.53691 2.97201 1.53627 3.4932V7.2925H12.2495C14.4313 7.2925 16.207 9.05962 16.207 11.2284C16.207 13.3971 14.4313 15.1634 12.2495 15.1634H1.53627V18.5068ZM1.53627 13.6364H12.2495C12.8918 13.6364 13.5078 13.3827 13.962 12.9311C14.4162 12.4795 14.6714 11.867 14.6714 11.2284C14.6714 10.5897 14.4162 9.97721 13.962 9.52561C13.5078 9.07401 12.8918 8.82031 12.2495 8.82031H1.53627V13.6364Z" fill="#4F3108"/>
<path d="M13.1233 11.2285C13.1231 10.947 13.0296 10.6734 12.8571 10.4501C12.6847 10.2269 12.443 10.0664 12.1695 9.99365C11.896 9.92089 11.606 9.93989 11.3444 10.0477C11.0829 10.1555 10.8645 10.3461 10.723 10.5899C10.5815 10.8337 10.5248 11.1172 10.5618 11.3963C10.5988 11.6754 10.7274 11.9345 10.9276 12.1335C11.1278 12.3326 11.3885 12.4604 11.6692 12.4971C11.9499 12.5338 12.235 12.4774 12.4802 12.3367C12.6758 12.2244 12.8382 12.0628 12.9511 11.8683C13.064 11.6737 13.1234 11.4531 13.1233 11.2285Z" fill="#4F3108"/>
</g>
<defs>
<clipPath id="clip0_366_48144">
<rect width="25" height="22" fill="white"/>
</clipPath>
</defs>
</svg>
