<svg viewBox="0 0 14 14" fill="none" xmlns="http://www.w3.org/2000/svg" id="icon-login-close-01">
    <path
        d="M7.00005 12.0751C8.00379 12.0751 8.98499 11.7774 9.81957 11.2198C10.6542 10.6621 11.3046 9.8695 11.6887 8.94217C12.0729 8.01483 12.1734 6.99442 11.9775 6.00997C11.7817 5.02551 11.2984 4.12124 10.5886 3.41148C9.87887 2.70173 8.97459 2.21839 7.99014 2.02257C7.00568 1.82675 5.98527 1.92725 5.05793 2.31136C4.1306 2.69548 3.33799 3.34595 2.78034 4.18053C2.2227 5.01511 1.92505 5.99631 1.92505 7.00005C1.92505 8.34603 2.45974 9.63687 3.41148 10.5886C4.36323 11.5404 5.65408 12.0751 7.00005 12.0751ZM7.00005 12.9501C5.82325 12.9501 4.67288 12.6011 3.69441 11.9473C2.71594 11.2935 1.95331 10.3642 1.50297 9.27702C1.05263 8.1898 0.934797 6.99345 1.16438 5.83926C1.39396 4.68508 1.96064 3.62489 2.79277 2.79277C3.62489 1.96064 4.68508 1.39396 5.83926 1.16438C6.99345 0.934797 8.1898 1.05263 9.27702 1.50297C10.3642 1.95331 11.2935 2.71594 11.9473 3.69441C12.6011 4.67288 12.9501 5.82325 12.9501 7.00005C12.9501 7.78142 12.7962 8.55513 12.4971 9.27702C12.1981 9.99891 11.7598 10.6548 11.2073 11.2073C10.6548 11.7598 9.99891 12.1981 9.27702 12.4971C8.55513 12.7962 7.78142 12.9501 7.00005 12.9501Z"
        fill="currentColor" />
    <path
        d="M7.61607 7.00007L9.28907 8.67307C9.37076 8.75476 9.41665 8.86555 9.41665 8.98107C9.41665 9.0966 9.37076 9.20739 9.28907 9.28907C9.20739 9.37076 9.0966 9.41665 8.98107 9.41665C8.86555 9.41665 8.75476 9.37076 8.67307 9.28907L7.00007 7.61607L5.32707 9.28907C5.28663 9.32952 5.23861 9.36161 5.18576 9.38349C5.13292 9.40539 5.07627 9.41665 5.01907 9.41665C4.96187 9.41665 4.90523 9.40539 4.85239 9.38349C4.79954 9.36161 4.75152 9.32952 4.71107 9.28907C4.67063 9.24863 4.63854 9.20061 4.61665 9.14776C4.59476 9.09492 4.5835 9.03827 4.5835 8.98107C4.5835 8.92387 4.59476 8.86723 4.61665 8.81438C4.63854 8.76154 4.67063 8.71352 4.71107 8.67307L6.38407 7.00007L4.71107 5.32707C4.67063 5.28663 4.63854 5.23861 4.61665 5.18576C4.59476 5.13292 4.5835 5.07627 4.5835 5.01907C4.5835 4.96187 4.59476 4.90523 4.61665 4.85239C4.63854 4.79954 4.67063 4.75152 4.71107 4.71107C4.75152 4.67063 4.79954 4.63854 4.85239 4.61665C4.90523 4.59476 4.96187 4.5835 5.01907 4.5835C5.07627 4.5835 5.13292 4.59476 5.18576 4.61665C5.23861 4.63854 5.28663 4.67063 5.32707 4.71107L7.00007 6.38407L8.67307 4.71107C8.71352 4.67063 8.76154 4.63854 8.81438 4.61665C8.86723 4.59476 8.92387 4.5835 8.98107 4.5835C9.03827 4.5835 9.09492 4.59476 9.14776 4.61665C9.20061 4.63854 9.24863 4.67063 9.28907 4.71107C9.32952 4.75152 9.36161 4.79954 9.38349 4.85239C9.40539 4.90523 9.41665 4.96187 9.41665 5.01907C9.41665 5.07627 9.40539 5.13292 9.38349 5.18576C9.36161 5.23861 9.32952 5.28663 9.28907 5.32707L7.61607 7.00007Z"
        fill="currentColor" />
</svg>
    