<svg viewBox="0 0 24 24" fill="none" xmlns="http://www.w3.org/2000/svg">
<path d="M16.678 12.2507C16.2279 11.9144 15.5916 11.7766 15.5916 11.7766C15.5916 11.7766 16.1278 11.4708 16.3455 11.1646C16.5624 10.8568 16.6703 10.3787 16.687 10.131C16.704 9.88208 16.7397 8.84108 15.9145 8.23451C15.2778 7.76728 14.5493 7.57731 13.5728 7.51036L13.5583 5.40796L12.2478 5.39915L12.2635 7.47704L11.2653 7.47093L11.2512 5.39215L9.94193 5.38368L9.95636 7.46124L7.3812 7.44285L7.38985 8.78973L8.14789 8.79424C8.35278 8.79687 8.72121 8.82111 8.87879 8.99531C9.03544 9.16795 9.0631 9.26029 9.06724 9.59591L9.10237 14.9614C9.10328 15.0884 9.08 15.2455 8.97053 15.3481C8.86264 15.4499 8.75145 15.4736 8.48839 15.4724L7.70523 15.4664L7.44713 17.0214L10.0223 17.0398L10.0371 19.1109L11.3473 19.121L11.3316 17.0483C11.7338 17.0515 12.0852 17.0542 12.3297 17.0544L12.3439 19.128L13.6531 19.1364L13.6396 17.0304C13.9773 17.0137 14.2928 16.9898 14.4763 16.9671C14.8486 16.9218 15.6928 16.8305 16.4783 16.2909C17.2639 15.7514 17.4347 14.8982 17.4475 14.0379C17.46 13.1789 17.1241 12.5871 16.6764 12.2515L16.678 12.2507ZM11.274 8.93803C11.274 8.93803 11.6902 8.9045 12.1005 8.91254C12.5106 8.9218 12.871 8.93604 13.4105 9.10412C13.9503 9.27099 14.2709 9.67441 14.2868 10.1465C14.3028 10.6185 14.0966 10.9318 13.7306 11.129C13.3659 11.3266 12.8579 11.4322 12.3822 11.4472C11.9037 11.4627 11.2917 11.4398 11.2917 11.4398L11.274 8.93803ZM14.253 15.1524C13.9544 15.3141 13.3561 15.4556 12.7745 15.4945C12.1933 15.5322 11.3249 15.5085 11.3249 15.5085L11.3041 12.7276C11.3041 12.7276 12.1376 12.6909 12.7862 12.7379C13.4347 12.785 13.9808 12.9535 14.2263 13.0755C14.4715 13.1987 14.9022 13.467 14.9064 14.1031C14.9106 14.7393 14.5513 14.9919 14.2527 15.1536L14.253 15.1524Z" fill="#1E2329"/>
<circle cx="12" cy="12" r="10.25" stroke="#1E2329" stroke-width="1.5"/>
</svg>
