<svg  viewBox="0 0 32 32" fill="none" xmlns="http://www.w3.org/2000/svg">
<g id="icon_opinion_qk">
<path id="Vector" d="M26.4859 6.96002C26.4859 5.88352 25.5742 5 24.4577 5H6.02483C4.91171 5 4 5.88027 4 6.96002V9.14817H26.4859V6.96002ZM22.016 13.654C23.6618 13.6523 25.2515 14.2357 26.4859 15.2944V12.0864H4V20.329C4 21.4055 4.91171 22.2891 6.02483 22.2891H15.5762C15.355 21.6285 15.2421 20.9382 15.2416 20.2435C15.245 16.6052 18.2758 13.654 22.0164 13.654H22.016ZM16.5076 18.0169C16.8122 17.3326 17.2488 16.7113 17.7937 16.1867C18.3422 15.6604 18.9869 15.2383 19.6948 14.9423C20.4225 14.6375 21.2073 14.4824 21.9996 14.4867C22.8332 14.4867 23.6113 14.6386 24.3339 14.9423C25.7597 15.5367 26.9001 16.6357 27.5244 18.0169C27.8427 18.718 28.0047 19.4767 27.9998 20.2431C28.0059 21.0167 27.8439 21.7828 27.5244 22.4912C27.2167 23.1773 26.7782 23.8005 26.232 24.3278C25.6866 24.8524 25.0421 25.2696 24.3339 25.5563C23.6113 25.8541 22.833 25.9999 21.9996 25.9999C21.2084 26.0053 20.4243 25.8544 19.6948 25.5563C18.9857 25.2697 18.3402 24.8526 17.7937 24.3278C17.2493 23.8003 16.8129 23.1771 16.5076 22.4912C16.1888 21.7947 16.0322 21.0476 16.0322 20.2431C16.0255 19.4766 16.1876 18.7175 16.5076 18.0169ZM18.6489 22.9441C18.8254 22.4748 19.1457 22.0695 19.5666 21.7829C19.9876 21.4963 20.4888 21.3423 21.0026 21.3418V23.7867C21.0026 23.9175 21.0458 24.0448 21.1258 24.15C21.2058 24.2552 21.3184 24.3326 21.447 24.3709C21.5757 24.4092 21.7135 24.4063 21.8403 24.3627C21.9671 24.3191 22.0762 24.2371 22.1515 24.1287L25.6719 20.7088C25.7394 20.6543 25.7944 20.5866 25.8335 20.5102C25.8725 20.4338 25.8947 20.3502 25.8987 20.265C25.9026 20.1797 25.8882 20.0946 25.8563 20.0151C25.8245 19.9355 25.7759 19.8634 25.7137 19.8032L22.0552 16.2443L22.0518 16.2473C21.9369 16.146 21.787 16.0906 21.6319 16.092C21.4653 16.0922 21.3056 16.1567 21.1878 16.2712C21.07 16.3858 21.0038 16.5411 21.0036 16.7032V18.5526C20.4779 18.5511 19.9618 18.6902 19.5119 18.9548C19.0619 19.2193 18.6955 19.5991 18.4525 20.0526C18.2095 20.5061 18.0994 21.0158 18.1342 21.5261C18.1691 22.0364 18.3474 22.5275 18.6499 22.9458L18.6489 22.9441Z" fill="url(#paint0_linear_358_24755)"/>
</g>
<defs>
<linearGradient id="paint0_linear_358_24755" x1="25.5" y1="22" x2="5.5" y2="5" gradientUnits="userSpaceOnUse">
<stop stop-color="#D3B79B"/>
<stop offset="1" stop-color="#FDE9D3"/>
</linearGradient>
</defs>
</svg>
