<svg viewBox="0 0 20 20" fill="none" xmlns="http://www.w3.org/2000/svg" id="icon-general-copy">
    <path fill-rule="evenodd" clip-rule="evenodd"
        d="M14.5 4.5H8.5C7.94772 4.5 7.5 4.94772 7.5 5.5V6.5H11.5C12.6046 6.5 13.5 7.39543 13.5 8.5V12.5H14.5C15.0523 12.5 15.5 12.0523 15.5 11.5V5.5C15.5 4.94772 15.0523 4.5 14.5 4.5ZM13.5 13.5H14.5C15.6046 13.5 16.5 12.6046 16.5 11.5V5.5C16.5 4.39543 15.6046 3.5 14.5 3.5H8.5C7.39543 3.5 6.5 4.39543 6.5 5.5V6.5H5.5C4.39543 6.5 3.5 7.39543 3.5 8.5V14.5C3.5 15.6046 4.39543 16.5 5.5 16.5H11.5C12.6046 16.5 13.5 15.6046 13.5 14.5V13.5ZM4.5 8.5C4.5 7.94772 4.94772 7.5 5.5 7.5H11.5C12.0523 7.5 12.5 7.94772 12.5 8.5V14.5C12.5 15.0523 12.0523 15.5 11.5 15.5H5.5C4.94772 15.5 4.5 15.0523 4.5 14.5V8.5Z"
        fill="currentColor" />
</svg>
    