<svg  viewBox="0 0 20 20" fill="none" xmlns="http://www.w3.org/2000/svg">
<path fill-rule="evenodd" clip-rule="evenodd" d="M14.1849 5.00008C14.3168 5.00008 14.4126 4.87445 14.3703 4.74951C13.764 2.95833 12.0359 1.66671 9.98714 1.66671C7.46373 1.66671 5.40604 3.67903 5.39758 6.16338V7.44116C3.96313 7.88917 2.9165 9.18849 2.9165 10.7404V14.8545C2.9165 16.7757 4.5093 18.3334 6.47384 18.3334H13.5267C15.4904 18.3334 17.0832 16.7757 17.0832 14.8545V10.7404C17.0832 9.71211 16.6241 8.79473 15.8967 8.16241C15.1474 7.51098 14.1062 7.38107 13.1205 7.26164H6.87972V6.14699C6.88819 4.4742 8.28538 3.11609 10.0043 3.11609C11.2543 3.11609 12.3342 3.83861 12.8303 4.87926C12.8649 4.95175 12.9369 5.00008 13.0172 5.00008H14.1849ZM9.99598 14.4416C10.4109 14.4416 10.7411 14.1187 10.7411 13.7129V11.8745C10.7411 11.477 10.4109 11.154 9.99598 11.154C9.58952 11.154 9.25928 11.477 9.25928 11.8745V13.7129C9.25928 14.1187 9.58952 14.4416 9.99598 14.4416Z" fill="currentColor"/>
</svg>
