<svg viewBox="0 0 17 17" fill="none" xmlns="http://www.w3.org/2000/svg" id="icon-general-search">
    <path fill-rule="evenodd" clip-rule="evenodd"
        d="M12.3333 7.16667C12.3333 10.0201 10.0201 12.3333 7.16667 12.3333C4.3132 12.3333 2 10.0201 2 7.16667C2 4.3132 4.3132 2 7.16667 2C10.0201 2 12.3333 4.3132 12.3333 7.16667ZM12.3808 11.3212C13.2899 10.1818 13.8333 8.73768 13.8333 7.16667C13.8333 3.48477 10.8486 0.5 7.16667 0.5C3.48477 0.5 0.5 3.48477 0.5 7.16667C0.5 10.8486 3.48477 13.8333 7.16667 13.8333C8.73768 13.8333 10.1818 13.2899 11.3212 12.3808C11.3288 12.3891 11.3366 12.3973 11.3447 12.4053L14.9697 16.0303C15.2626 16.3232 15.7374 16.3232 16.0303 16.0303C16.3232 15.7374 16.3232 15.2626 16.0303 14.9697L12.4053 11.3447C12.3973 11.3366 12.3891 11.3288 12.3808 11.3212Z"
        fill="currentColor" />
</svg>
    