<svg viewBox="0 0 20 20" xmlns="http://www.w3.org/2000/svg" id="icon-login-eye-close">
    <path fill-rule="evenodd" clip-rule="evenodd"
        d="M8.16984 12.7102C8.69023 13.063 9.32446 13.2763 9.99935 13.2763C11.7882 13.2763 13.2437 11.8077 13.2437 10.0028C13.2437 9.32182 13.0323 8.68189 12.6826 8.15682L11.7963 9.05108C11.9427 9.33003 12.024 9.6582 12.024 10.0028C12.024 11.1268 11.1133 12.0456 9.99935 12.0456C9.65784 12.0456 9.3326 11.9636 9.05614 11.8159L8.16984 12.7102ZM15.3577 5.45801C16.5367 6.54097 17.5368 8.00132 18.2849 9.75703C18.3499 9.91291 18.3499 10.0934 18.2849 10.2411C16.5448 14.3268 13.4469 16.7717 9.99924 16.7717H9.99111C8.4218 16.7717 6.91754 16.2548 5.59216 15.3113L4.01471 16.9029C3.89275 17.026 3.73826 17.0834 3.58376 17.0834C3.42927 17.0834 3.26665 17.026 3.15281 16.9029C2.94953 16.6978 2.91701 16.3696 3.07963 16.1317L3.10403 16.0989L15.13 3.96484L15.13 3.96483C15.1463 3.94843 15.1625 3.93202 15.1707 3.91561C15.1869 3.89921 15.2032 3.8828 15.2113 3.86639L15.9756 3.09519C16.2196 2.85727 16.6017 2.85727 16.8375 3.09519C17.0815 3.33311 17.0815 3.72692 16.8375 3.96484L15.3577 5.45801ZM6.74872 10.0067C6.74872 10.22 6.77311 10.4333 6.80564 10.6302L3.79711 13.6658C2.98399 12.7141 2.27658 11.5655 1.71553 10.2446C1.65049 10.0969 1.65049 9.91645 1.71553 9.76057C3.4556 5.67486 6.55357 3.2382 9.99305 3.2382H10.0012C11.1639 3.2382 12.2942 3.51714 13.335 4.04222L10.6191 6.78243C10.424 6.74961 10.2126 6.725 10.0012 6.725C8.20419 6.725 6.74872 8.19356 6.74872 10.0067Z"
    />
</svg>
    