<svg xmlns="http://www.w3.org/2000/svg" width="16" height="18" viewBox="0 0 16 18" fill="none">
  <path fill-rule="evenodd" clip-rule="evenodd" d="M12.1854 3.99939C12.3173 3.99939 12.4131 3.87376 12.3708 3.74882C11.7645 1.95764 10.0364 0.666016 7.98762 0.666016C5.46421 0.666016 3.40653 2.67834 3.39806 5.16269V6.44047C1.96362 6.88848 0.916992 8.18779 0.916992 9.73968V13.8538C0.916992 15.775 2.50979 17.3327 4.47432 17.3327H11.5272C13.4909 17.3327 15.0837 15.775 15.0837 13.8538V9.73968C15.0837 8.71142 14.6245 7.79404 13.8972 7.16171C13.1479 6.51028 12.1067 6.38038 11.121 6.26095H4.88021V5.1463C4.88868 3.47351 6.28587 2.1154 8.00483 2.1154C9.25482 2.1154 10.3347 2.83792 10.8308 3.87856C10.8654 3.95106 10.9374 3.99939 11.0177 3.99939H12.1854ZM7.99647 13.4409C8.41139 13.4409 8.74163 13.118 8.74163 12.7122V10.8738C8.74163 10.4763 8.41139 10.1533 7.99647 10.1533C7.59001 10.1533 7.25977 10.4763 7.25977 10.8738V12.7122C7.25977 13.118 7.59001 13.4409 7.99647 13.4409Z" fill="currentColor"/>
</svg>