<svg viewBox="0 0 16 16" fill="none" xmlns="http://www.w3.org/2000/svg">
    <path
        d="M8 0C6.41775 0 4.87103 0.469192 3.55544 1.34824C2.23985 2.22729 1.21447 3.47672 0.608967 4.93853C0.00346625 6.40034 -0.15496 8.00887 0.153721 9.56072C0.462403 11.1126 1.22433 12.538 2.34315 13.6569C3.46197 14.7757 4.88743 15.5376 6.43928 15.8463C7.99113 16.155 9.59966 15.9965 11.0615 15.391C12.5233 14.7855 13.7727 13.7602 14.6518 12.4446C15.5308 11.129 16 9.58225 16 8C16 5.87827 15.1571 3.84344 13.6569 2.34315C12.1566 0.842855 10.1217 0 8 0ZM10.3467 12.8912L9.61494 13.6229C9.54952 13.6884 9.46079 13.7251 9.36827 13.7251C9.27575 13.7251 9.18702 13.6884 9.1216 13.6229C9.05618 13.5575 9.01943 13.4688 9.01943 13.3763C9.01943 13.2837 9.05618 13.195 9.1216 13.1296C9.12881 13.1225 9.13352 13.1133 9.13501 13.1033C9.1365 13.0933 9.1347 13.0832 9.12987 13.0743C9.12505 13.0654 9.11747 13.0584 9.10827 13.0542C9.09908 13.05 9.08878 13.049 9.07894 13.0512C8.13893 13.2512 7.16171 13.1844 6.25768 12.8583C5.35365 12.5322 4.55884 11.9597 3.96303 11.2057C3.36722 10.4516 2.99416 9.54591 2.886 8.59096C2.77784 7.63601 2.93888 6.66984 3.35094 5.8016C3.36993 5.76165 3.39823 5.72685 3.43347 5.70011C3.46871 5.67338 3.50985 5.6555 3.55344 5.64797C3.59703 5.64045 3.64179 5.6435 3.68395 5.65686C3.72611 5.67023 3.76445 5.69353 3.79574 5.7248C3.84228 5.77163 3.87337 5.8316 3.88481 5.89663C3.89625 5.96165 3.8875 6.02863 3.85974 6.08853C3.49096 6.88309 3.35835 7.7669 3.47772 8.6347C3.59708 9.50249 3.96338 10.3177 4.53298 10.9832C5.10258 11.6486 5.85148 12.1364 6.69045 12.3882C7.52943 12.6401 8.42312 12.6455 9.26507 12.4037C9.2729 12.4015 9.28001 12.3973 9.28568 12.3914C9.29136 12.3856 9.29539 12.3784 9.29739 12.3705C9.29939 12.3626 9.29928 12.3543 9.29707 12.3465C9.29486 12.3387 9.29063 12.3315 9.2848 12.3259L9.11734 12.1579C9.05504 12.0919 9.02091 12.0042 9.02219 11.9135C9.02347 11.8228 9.06005 11.7361 9.12418 11.6719C9.18831 11.6077 9.27493 11.571 9.36566 11.5696C9.4564 11.5683 9.54409 11.6023 9.61014 11.6645L10.3408 12.3963C10.4058 12.4618 10.4427 12.5502 10.4435 12.6426C10.4443 12.735 10.409 12.824 10.3451 12.8907L10.3467 12.8912ZM9.42454 7.43413C9.48747 7.43201 9.55018 7.44257 9.60894 7.46519C9.66771 7.48781 9.72132 7.52202 9.76658 7.56578C9.81185 7.60955 9.84785 7.66198 9.87243 7.71995C9.89702 7.77791 9.90969 7.84023 9.90969 7.9032C9.90969 7.96617 9.89702 8.02849 9.87243 8.08645C9.84785 8.14442 9.81185 8.19685 9.76658 8.24061C9.72132 8.28438 9.66771 8.31859 9.60894 8.34121C9.55018 8.36383 9.48747 8.37439 9.42454 8.37227H8.4368V8.6464H9.42454C9.54887 8.6464 9.66811 8.69579 9.75603 8.78371C9.84395 8.87163 9.89334 8.99087 9.89334 9.1152C9.89334 9.23953 9.84395 9.35877 9.75603 9.44669C9.66811 9.53461 9.54887 9.584 9.42454 9.584H8.4368V10.3131C8.4368 10.4378 8.38724 10.5575 8.29903 10.6457C8.21081 10.7339 8.09116 10.7835 7.9664 10.7835C7.84165 10.7835 7.722 10.7339 7.63378 10.6457C7.54556 10.5575 7.496 10.4378 7.496 10.3131V9.58453H6.50827C6.38394 9.58453 6.2647 9.53514 6.17678 9.44722C6.08886 9.35931 6.03947 9.24007 6.03947 9.11573C6.03947 8.9914 6.08886 8.87216 6.17678 8.78424C6.2647 8.69632 6.38394 8.64693 6.50827 8.64693H7.496V8.3728H6.50827C6.44534 8.37492 6.38263 8.36436 6.32386 8.34174C6.2651 8.31913 6.21149 8.28491 6.16622 8.24115C6.12096 8.19738 6.08496 8.14495 6.06037 8.08699C6.03579 8.02902 6.02312 7.9667 6.02312 7.90373C6.02312 7.84077 6.03579 7.77845 6.06037 7.72048C6.08496 7.66251 6.12096 7.61008 6.16622 7.56632C6.21149 7.52255 6.2651 7.48834 6.32386 7.46572C6.38263 7.44311 6.44534 7.43254 6.50827 7.43467H7.06934L5.96267 5.95947C5.92572 5.91009 5.89887 5.85392 5.88363 5.79416C5.86839 5.73441 5.86508 5.67223 5.87387 5.61119C5.88266 5.55016 5.90338 5.49144 5.93486 5.43842C5.96634 5.38539 6.00796 5.33908 6.05734 5.30213C6.15706 5.22752 6.28234 5.19557 6.40561 5.21333C6.52888 5.23108 6.64006 5.29708 6.71467 5.3968L7.968 7.06507L9.22134 5.3968C9.29658 5.29732 9.40811 5.23162 9.5316 5.21404C9.65508 5.19645 9.78051 5.22841 9.88054 5.30293C9.92972 5.33976 9.97116 5.38592 10.0025 5.43878C10.0338 5.49163 10.0544 5.55013 10.0632 5.61095C10.0719 5.67177 10.0685 5.73372 10.0533 5.79324C10.0381 5.85276 10.0113 5.90871 9.9744 5.95787L8.86614 7.43413H9.42454ZM12.4645 10.5451C12.4456 10.5783 12.4203 10.6075 12.3901 10.6309C12.3598 10.6544 12.3253 10.6717 12.2884 10.6818C12.2139 10.7022 12.1343 10.6921 12.0672 10.6539C12.0001 10.6156 11.9509 10.5522 11.9305 10.4777C11.9101 10.4032 11.9201 10.3237 11.9584 10.2565C12.4137 9.46173 12.6196 8.54842 12.5494 7.63513C12.4792 6.72184 12.1362 5.85073 11.5647 5.13485C10.9933 4.41898 10.2198 3.89139 9.34481 3.62055C8.46978 3.34971 7.53354 3.34812 6.6576 3.616L6.88054 3.83893C6.94445 3.90441 6.97998 3.99243 6.97943 4.08393C6.97888 4.17543 6.94228 4.26302 6.87759 4.32772C6.81289 4.39241 6.7253 4.42901 6.6338 4.42956C6.54231 4.43011 6.45428 4.39458 6.3888 4.33067L6.29387 4.2352L5.5632 3.4208C5.55257 3.36487 5.55571 3.30719 5.57234 3.25274C5.58897 3.19829 5.6186 3.14871 5.65867 3.10827L6.3904 2.37653C6.42255 2.3436 6.46091 2.31738 6.50326 2.29939C6.54562 2.28139 6.59112 2.27198 6.63714 2.2717C6.68316 2.27143 6.72877 2.28028 6.77134 2.29777C6.81391 2.31525 6.85258 2.34101 6.88512 2.37355C6.91766 2.40609 6.94342 2.44476 6.9609 2.48733C6.97839 2.5299 6.98724 2.57551 6.98697 2.62153C6.98669 2.66755 6.97728 2.71305 6.95928 2.75541C6.94129 2.79776 6.91507 2.83612 6.88214 2.86827L6.768 2.98187C7.74701 2.74135 8.77508 2.79346 9.72475 3.13174C10.6744 3.47002 11.5039 4.0796 12.1104 4.88489C12.7169 5.69018 13.0737 6.65576 13.1365 7.66192C13.1994 8.66808 12.9655 9.67056 12.464 10.5451H12.4645Z"
        fill="currentColor" />
</svg>
    