<svg  viewBox="0 0 24 24" fill="none" xmlns="http://www.w3.org/2000/svg">
<path fill-rule="evenodd" clip-rule="evenodd" d="M13.9921 7.51979H9.76042H9.75847C8.44801 7.51979 7.44372 4.60658 7.44372 4.60658C7.44372 3.73221 7.66603 2.83769 8.98624 3.02506C9.63058 3.1165 10.0863 3.36632 10.5092 3.59813C10.9528 3.84128 11.3603 4.06463 11.9114 4.06463C12.3845 4.06463 12.7166 3.84092 13.0729 3.60087C13.5038 3.31057 13.9702 2.99639 14.7643 3.02506C16.225 3.07744 16.3069 3.73221 16.3069 4.60658C16.3069 4.60658 15.3026 7.51979 13.9921 7.51979ZM9.76237 8.42438H14.2281C18.9422 8.42438 20.2675 17.4766 20.3904 18.3166C20.3964 18.3574 20.3996 18.3789 20.4001 18.3789C20.4001 19.6884 19.3646 21 18.0853 21H5.91485C4.63559 21 3.6001 19.6904 3.6001 18.3789C3.6001 18.3789 4.8189 8.42438 9.76237 8.42438ZM9.01575 17.3876H11.0297V18.3849C11.0436 18.6598 11.1357 18.8643 11.3062 18.9986C11.4766 19.1328 11.7149 19.2 12.021 19.2C12.6401 19.2 12.9636 18.9283 12.9914 18.3849V17.3684L14.9949 17.378C15.1757 17.3653 15.3184 17.3029 15.4227 17.1911C15.5271 17.0792 15.5862 16.9401 15.6001 16.7739C15.5862 16.6141 15.5271 16.4767 15.4227 16.3616C15.3184 16.2465 15.1757 16.1826 14.9949 16.1698H12.9914V15.5849L14.9844 15.5753C15.1653 15.5625 15.3097 15.4986 15.4175 15.3835C15.5253 15.2684 15.5862 15.1278 15.6001 14.9616C15.5862 14.8018 15.5271 14.6707 15.4227 14.5684C15.3184 14.4662 15.1757 14.4086 14.9949 14.3958H13.461L15.0784 11.9794C15.2175 11.8132 15.2871 11.6374 15.2871 11.452C15.2662 11.3178 15.2331 11.2091 15.1879 11.126C15.1427 11.0429 15.0871 10.979 15.021 10.9342C14.9549 10.8895 14.8784 10.8575 14.7914 10.8383C14.7044 10.8191 14.6088 10.8063 14.5044 10.8C14.3375 10.8191 14.1879 10.8703 14.0557 10.9534C13.9236 11.0365 13.8158 11.1324 13.7323 11.2411L11.9897 13.926L10.4036 11.2602C10.3201 11.1516 10.2123 11.0509 10.0801 10.9582C9.94792 10.8655 9.79836 10.8127 9.6314 10.8C9.34618 10.8319 9.1514 10.9038 9.04705 11.0157C8.94271 11.1276 8.87314 11.273 8.83836 11.452C8.8314 11.5926 8.85923 11.7221 8.92184 11.8404C8.98445 11.9586 9.05053 12.0561 9.1201 12.1328L10.5184 14.3958H9.01575C8.82792 14.4086 8.68358 14.4662 8.58271 14.5684C8.48184 14.6707 8.42097 14.8018 8.4001 14.9616C8.42097 15.1278 8.48184 15.2653 8.58271 15.3739C8.68358 15.4826 8.82792 15.5433 9.01575 15.5561L11.0297 15.5657V16.1698H9.01575C8.82792 16.1826 8.68358 16.2401 8.58271 16.3424C8.48184 16.4447 8.42097 16.5758 8.4001 16.7356C8.42097 16.8954 8.48184 17.0408 8.58271 17.1719C8.68358 17.3029 8.82792 17.3748 9.01575 17.3876Z" fill="#F0AA36"/>
</svg>
