<?xml version="1.0" encoding="utf-8"?><svg xmlns="http://www.w3.org/2000/svg" xmlns:xlink="http://www.w3.org/1999/xlink"><symbol viewBox="0 0 16 16" fill="none" id="icon-betcheckin-date" xmlns="http://www.w3.org/2000/svg"><g clip-path="url(#aa)"><path d="M11.263 4.516c.4 0 .742-.31.742-.69V.69c0-.382-.343-.691-.742-.691-.4 0-.723.309-.723.69v3.135c0 .382.323.69.723.69ZM9.817 1.744H6.164V2.79h3.653V1.744Zm4.271 0h-1.36V2.78h1.408c.418 0 .76.336.76.727v2.408H1.085V3.507c0-.4.352-.727.761-.727h1.418V1.744H1.912C.866 1.744 0 2.571 0 3.571v10.603C0 15.182.828 16 1.874 16h12.214C15.134 16 16 15.182 16 14.174V3.57c0-1.009-.856-1.827-1.912-1.827Zm.818 12.475c0 .4-.352.727-.76.727h-12.3c-.42 0-.762-.336-.762-.727V6.951h13.832v7.268h-.01Zm-10.93-4.134c.609 0 1.094-.472 1.094-1.045 0-.581-.485-1.045-1.094-1.045-.609 0-1.094.473-1.094 1.045 0 .573.495 1.045 1.094 1.045Zm4.005 0c.609 0 1.094-.472 1.094-1.045 0-.581-.495-1.045-1.094-1.045-.609 0-1.094.473-1.094 1.045 0 .573.495 1.045 1.094 1.045ZM3.957 13.91c.609 0 1.094-.472 1.094-1.045 0-.581-.485-1.044-1.094-1.044-.609 0-1.094.472-1.094 1.044 0 .582.485 1.045 1.094 1.045Zm4.024 0c.609 0 1.094-.472 1.094-1.045 0-.581-.495-1.044-1.094-1.044-.609 0-1.094.472-1.094 1.044 0 .582.495 1.045 1.094 1.045Zm4.005-3.825c.608 0 1.094-.472 1.094-1.045 0-.581-.495-1.045-1.094-1.045-.61 0-1.094.473-1.094 1.045 0 .573.494 1.045 1.094 1.045Zm-7.277-5.57c.4 0 .742-.308.742-.69V.691C5.45.309 5.108 0 4.709 0c-.4 0-.723.309-.723.69v3.135c0 .382.323.69.723.69Z" fill="currentColor"/></g><defs><clipPath id="aa"><path fill="currentColor" d="M0 0h16v16H0z"/></clipPath></defs></symbol><symbol viewBox="0 0 25 22" fill="none" id="icon-center-wallet" xmlns="http://www.w3.org/2000/svg"><g clip-path="url(#ba)" fill="#4F3108"><path d="M3.513 22c-.931 0-1.824-.37-2.483-1.024A3.486 3.486 0 0 1 0 18.507V3.493a3.487 3.487 0 0 1 1.03-2.469A3.527 3.527 0 0 1 3.513 0H21.49c.931.001 1.824.37 2.483 1.024a3.487 3.487 0 0 1 1.03 2.47v15.013a3.486 3.486 0 0 1-1.03 2.47A3.527 3.527 0 0 1 21.489 22H3.513Zm-1.977-3.493c.001.521.21 1.02.58 1.39.37.368.873.575 1.398.576h17.975c.524-.001 1.026-.208 1.397-.577.37-.369.579-.868.58-1.39V3.494c0-.521-.21-1.02-.58-1.39a1.986 1.986 0 0 0-1.398-.576H3.513c-.524 0-1.026.208-1.397.577-.37.368-.58.868-.58 1.39v3.799H12.25c2.182 0 3.958 1.767 3.958 3.935 0 2.17-1.776 3.935-3.958 3.935H1.537v3.344Zm0-4.87H12.25c.643 0 1.259-.254 1.713-.706a2.401 2.401 0 0 0 0-3.405 2.429 2.429 0 0 0-1.713-.706H1.537v4.816Z"/><path d="M13.123 11.229a1.275 1.275 0 0 0-.954-1.235 1.293 1.293 0 0 0-1.446.596 1.273 1.273 0 0 0 .205 1.543 1.289 1.289 0 0 0 2.195-.904Z"/></g><defs><clipPath id="ba"><path fill="#fff" d="M0 0h25v22H0z"/></clipPath></defs></symbol><symbol viewBox="0 0 12 12" fill="none" id="icon-center-wallet2" xmlns="http://www.w3.org/2000/svg"><path d="m10 10.5-4-4-4 4M10 5.5l-4-4-4 4" stroke="currentColor" stroke-width="1.2" stroke-linecap="round" stroke-linejoin="round"/></symbol><symbol viewBox="0 0 32 32" fill="none" id="icon-feedback-withdraw" xmlns="http://www.w3.org/2000/svg"><path d="M26.486 6.96c0-1.076-.912-1.96-2.028-1.96H6.025C4.912 5 4 5.88 4 6.96v2.188h22.486V6.96Zm-4.47 6.694a6.858 6.858 0 0 1 4.47 1.64v-3.208H4v8.243c0 1.076.912 1.96 2.025 1.96h9.551a6.455 6.455 0 0 1-.334-2.046c.003-3.638 3.034-6.589 6.774-6.589Zm-5.508 4.363a5.837 5.837 0 0 1 1.286-1.83 6.199 6.199 0 0 1 1.9-1.245A5.886 5.886 0 0 1 22 14.487a6.04 6.04 0 0 1 5.525 3.53A5.3 5.3 0 0 1 28 20.243a5.363 5.363 0 0 1-.476 2.248 5.923 5.923 0 0 1-3.19 3.065C23.61 25.854 22.833 26 22 26a5.987 5.987 0 0 1-2.305-.444 5.977 5.977 0 0 1-1.901-1.228 5.898 5.898 0 0 1-1.286-1.837 5.327 5.327 0 0 1-.476-2.248 5.246 5.246 0 0 1 .476-2.226Zm2.14 4.927c.177-.47.498-.874.919-1.161.42-.287.922-.44 1.436-.441v2.445a.6.6 0 0 0 .123.363.645.645 0 0 0 .714.213.626.626 0 0 0 .311-.234l3.52-3.42a.616.616 0 0 0 .228-.444.597.597 0 0 0-.185-.462l-3.659-3.559-.003.003a.639.639 0 0 0-.864.024.604.604 0 0 0-.184.432v1.85a2.928 2.928 0 0 0-1.492.402c-.45.264-.817.644-1.06 1.098a2.725 2.725 0 0 0 .198 2.893l-.001-.002Z" fill="url(#da)"/><defs><linearGradient id="da" x1="25.5" y1="22" x2="5.5" y2="5" gradientUnits="userSpaceOnUse"><stop stop-color="#D3B79B"/><stop offset="1" stop-color="#FDE9D3"/></linearGradient></defs></symbol><symbol viewBox="0 0 16 16" fill="none" id="icon-general-add" xmlns="http://www.w3.org/2000/svg"><path fill-rule="evenodd" clip-rule="evenodd" d="M8.6 3.333a.6.6 0 0 0-1.2 0V7.4H3.333a.6.6 0 0 0 0 1.2H7.4v4.067a.6.6 0 1 0 1.2 0V8.6h4.066a.6.6 0 1 0 0-1.2H8.6V3.333Z" fill="currentColor"/></symbol></svg>